<?xml version="1.0" encoding="UTF-8" standalone="no"?>
<!-- Created with Inkscape (http://www.inkscape.org/) -->

<svg
   xmlns:dc="http://purl.org/dc/elements/1.1/"
   xmlns:cc="http://creativecommons.org/ns#"
   xmlns:rdf="http://www.w3.org/1999/02/22-rdf-syntax-ns#"
   xmlns:svg="http://www.w3.org/2000/svg"
   xmlns="http://www.w3.org/2000/svg"
   xmlns:sodipodi="http://sodipodi.sourceforge.net/DTD/sodipodi-0.dtd"
   xmlns:inkscape="http://www.inkscape.org/namespaces/inkscape"
   version="1.1"
   id="svg2"
   width="1024"
   height="256"
   viewBox="0 0 1024 256"
   sodipodi:docname="logo.svg"
   inkscape:version="0.92.4 (5da689c313, 2019-01-14)"
   inkscape:export-filename="/home/lucagasperini/logo.svg.png"
   inkscape:export-xdpi="96"
   inkscape:export-ydpi="96">
  <metadata
     id="metadata8">
    <rdf:RDF>
      <cc:Work
         rdf:about="">
        <dc:format>image/svg+xml</dc:format>
        <dc:type
           rdf:resource="http://purl.org/dc/dcmitype/StillImage" />
        <dc:title></dc:title>
      </cc:Work>
    </rdf:RDF>
  </metadata>
  <defs
     id="defs6" />
  <sodipodi:namedview
     pagecolor="#ffffff"
     bordercolor="#666666"
     borderopacity="1"
     objecttolerance="10"
     gridtolerance="10"
     guidetolerance="10"
     inkscape:pageopacity="0"
     inkscape:pageshadow="2"
     inkscape:window-width="1920"
     inkscape:window-height="1036"
     id="namedview4"
     showgrid="false"
     inkscape:zoom="0.49625"
     inkscape:cx="857.09292"
     inkscape:cy="95.198366"
     inkscape:window-x="0"
     inkscape:window-y="44"
     inkscape:window-maximized="1"
     inkscape:current-layer="g36"
     inkscape:pagecheckerboard="true" />
  <g
     id="g12"
     transform="matrix(0.33297704,0,0,0.33297704,-21.957744,-85.08919)">
    <g
       id="g36">
      <g
         id="g137"
         transform="matrix(0.49999843,0,0,0.49999843,802.13976,366.72726)">
        <path
           style="fill:#fdf200;stroke-width:2.69130754"
           d="m -80.477178,722.94803 c -3.458909,-5.55082 -9.147029,-15.23953 -12.640232,-21.53047 -7.09393,-12.77549 -9.14822,-13.39474 -22.81529,-6.87737 -8.33746,3.97585 -10.06062,4.06214 -13.43774,0.67284 -2.13062,-2.13833 -24.59749,-40.82607 -49.92639,-85.97275 -25.32889,-45.14669 -47.73909,-83.81376 -49.80041,-85.92683 -3.2469,-3.32839 -3.92075,-3.32839 -5.04111,0 -0.71129,2.11307 -7.40942,41.31776 -14.88474,87.12155 -7.47533,45.80379 -14.64547,84.3336 -15.93371,85.62184 -2.74893,2.74893 -234.87023,-5.47989 -237.90469,-8.43384 -1.11836,-1.08871 -0.6426,-8.90481 1.05726,-17.36911 1.69988,-8.46429 2.61492,-15.81116 2.03344,-16.32634 -2.64005,-2.33897 -25.62746,-4.0826 -28.58954,-2.16851 -1.82077,1.17655 -5.27141,11.77135 -7.66807,23.54396 -2.39666,11.77265 -5.30019,22.40698 -6.45226,23.63189 -1.89107,2.01063 -392.98669,-20.62451 -413.85122,-23.95212 l -8.74674,-1.39501 V 656.2675 c 0,-20.27352 2.40582,-18.96936 -39.24288,-21.27257 -26.7285,-1.4781 -27.2289,-1.39495 -33.6414,5.5902 -27.1309,29.55369 -81.0245,60.36431 -124.9455,71.43063 -44.7385,11.27224 -154.9085,6.89579 -167.0636,-6.63653 -1.6248,-1.80886 -5.0564,-9.01954 -7.6259,-16.02373 -4.955,-13.50721 -7.2195,-14.79617 -34.6344,-19.71351 -5.6022,-1.00484 -12.4822,-3.80375 -15.2889,-6.21977 -4.3989,-3.78659 -52.6432,-129.81447 -77.2176,-201.71417 l -7.6513,-22.38645 8.9604,-8.04379 c 4.9283,-4.4241 9.7727,-7.6722 10.7653,-7.21796 0.9926,0.45421 13.3101,6.5714 27.3721,13.59372 30.6245,15.29324 51.1285,20.87347 76.6975,20.87347 34.271,0 52.4715,-14.98845 52.4811,-43.21925 0.01,-16.14522 -11.5291,-35.29269 -42.7408,-70.94976 -45.5847,-52.07717 -59.1855,-73.90395 -68.9225,-110.60817 -21.0027,-79.17039 12.6133,-163.344247 89.9431,-225.2157306 53.112,-42.4948144 121.2725,-65.5389824 208.7703,-70.5824744 27.8096,-1.602982 94.3986,1.804391 97.5878,4.993595 0.7982,0.798148 -0.134,14.30025 -2.0715,30.004637 -4.1188,33.3848452 -4.1489,33.3329298 19.35574,33.3962698 12.86031,0.034718 15.56077,-0.8003479 16.97236,-5.2479089 1.03748,-3.2687683 4.96189,-5.8752527 10.27376,-6.823535 39.90799,-7.1244499 420.80049,-59.7166179 422.2691,-58.3052949 1.04717,1.006304 -2.88869,16.959238 -8.74636,35.450965 -5.85767,18.491727 -10.65047,34.6728783 -10.6507,35.9581258 -2.2e-4,1.2867613 10.22595,1.484956 22.75773,0.4410582 12.51698,-1.0426462 23.92199,-1.176411 25.34453,-0.2972415 1.47888,0.9139883 -12.39793,46.5353695 -32.40612,106.5384245 -28.03519,84.07534 -35.91609,104.93991 -39.6376,104.93991 -2.55481,0 -37.26428,-10.89979 -77.13219,-24.22177 -39.86792,-13.32197 -74.70018,-24.22177 -77.40504,-24.22177 -4.38241,0 -4.73988,1.68511 -3.28286,15.47503 3.37587,31.95071 4.52959,38.35113 6.91322,38.35113 1.34667,0 17.91308,-4.23881 36.81426,-9.41958 18.90116,-5.18075 36.66637,-9.41956 39.47826,-9.41956 4.84399,0 5.04121,1.98249 3.75512,37.74486 -0.74658,20.75967 -0.33727,38.37532 0.90959,39.14591 1.24685,0.77062 8.58637,-0.47557 16.31001,-2.76923 8.47687,-2.51737 15.01766,-3.19574 16.50188,-1.71151 1.48423,1.48423 1.39984,26.29055 -0.21286,62.58429 -1.52759,34.37735 -1.66321,61.21083 -0.31672,62.6599 1.43766,1.54721 22.47479,-7.11866 54.00665,-22.24707 28.4084,-13.62983 52.56058,-23.8535 53.67153,-22.71923 1.11091,1.13424 -2.10469,21.43968 -7.14581,45.12318 -5.04111,23.68352 -9.20029,44.57478 -9.24262,46.42506 -0.083,3.62343 6.87246,4.67222 8.92433,1.34566 0.68477,-1.11017 25.71787,-103.14437 55.62911,-226.74268 29.91128,-123.5983 55.58821,-226.212778 57.05987,-228.0321761 3.68806,-4.5594454 70.54322,-25.9971049 101.6883,-32.6072059 41.08621,-8.719958 65.99915,-11.311465 108.98843,-11.337261 65.87872,-0.03956 105.900893,7.847914 151.094053,29.777174 47.9246088,23.2546551 80.467647,54.31306 102.267704,97.602207 5.049129,10.026198 13.583145,23.954322 18.964496,30.951342 23.770538,30.90735 35.838007,71.89316 35.838007,121.71985 0,51.04465 -12.009599,92.10998 -37.590493,128.53583 -14.009084,19.94822 -42.156477,47.25449 -60.996008,59.17328 -6.4308194,4.06841 -12.225232,8.78572 -12.876515,10.48282 -1.3556925,3.5329 111.052996,121.38828 116.172816,121.80191 1.85026,0.14937 3.44193,-0.0309 3.53703,-0.40105 0.0951,-0.37007 9.59828,-128.1966 21.11823,-284.05899 12.41854,-168.020345 22.1108,-284.551644 23.80818,-286.249024 3.12425,-3.124245 191.47733,-0.371441 196.73057,2.875225 1.57078,0.970788 3.57433,12.0188822 4.45235,24.551327 2.92562,41.759543 2.29158,40.279754 17.25835,40.279754 7.18046,0 14.20534,1.506695 15.68509,3.364121 1.4741,1.850281 3.46048,17.897204 4.41401,35.659835 2.48354,46.252602 4.63222,65.937032 7.19771,65.937032 1.23208,0 5.93029,-7.73178 10.44018,-17.18172 4.5101,-9.44996 15.31624,-27.91904 24.01387,-41.042434 60.16223,-90.7773408 140.29007,-138.44645 240.14311,-142.864057 109.39843,-4.839913 193.74045,40.888669 253.20772,137.28437 30.6478,49.679541 48.91788,77.260381 51.17898,77.260381 1.27185,0 1.62549,-7.5693 0.786,-16.82067 -4.46205,-49.17546 -11.54672,-175.867325 -9.92487,-177.485864 2.5118,-2.506812 271.44353,-19.23368 276.71453,-17.21094 3.4177,1.311528 4.0075,6.768653 3.4641,32.060318 -0.3601,16.7638471 0.2287,31.907823 1.3066,33.653304 1.3312,2.1538 6.5498,2.634299 16.2405,1.495371 8.9007,-1.046118 14.9392,-0.609924 16.0318,1.157982 0.964,1.559943 -0.9041,94.881839 -4.1516,207.382049 -4.8502,168.02707 -5.2802,205.29809 -2.4075,208.75947 4.7838,5.76407 23.0404,5.30973 36.7457,-0.91444 17.3783,-7.89228 30.3236,-29.97991 35.9501,-61.33844 1.6461,-9.17254 8.2728,-106.47666 14.7266,-216.23137 6.5968,-112.187512 12.909,-200.729062 14.4181,-202.237937 3.003,-3.003015 218.3824,15.382358 221.9461,18.945925 1.1402,1.140321 0.839,13.9747706 -0.6692,28.5210133 -3.2487,31.3281747 -2.1153,33.7547317 15.7908,33.8139747 19.4495,0.06439 20.2666,1.307329 18.3855,27.961752 -0.8978,12.722525 -0.658,23.131892 0.5333,23.131892 1.1909,0 7.7243,-8.360064 14.5188,-18.577936 33.8384,-50.888163 88.1623,-92.482796 149.2858,-114.30441 46.8578,-16.728604 117.9043,-25.096566 177.8485,-20.947248 19.7091,1.364229 37.0343,3.680395 38.5007,5.147024 1.7616,1.761265 1.5355,12.001221 -0.6655,30.161089 -3.8658,31.8968416 -3.6469,32.2931501 17.8779,32.3584278 7.4751,0.022607 14.848,1.2979437 16.3838,2.833947 1.9295,1.9294252 1.7329,10.4568002 -0.6354,27.5859112 -1.8852,13.636231 -2.4779,25.760135 -1.3166,26.942037 2.3785,2.420925 29.4873,-7.207672 51.0358,-18.127129 38.3375,-19.42695 57.5972,-52.9711742 66.3088,-115.486578 8.1934,-58.800455 9.81,-66.679255 14.0124,-68.291875 2.2438,-0.86099 24.828,3.73245 50.1871,10.20764 40.4571,10.33036 49.5701,11.75759 74.3659,11.64666 45.4699,-0.20344 70.1089,-13.3407 98.4266,-52.48013 31.9156,-44.11267 39.339,-53.55043 42.1213,-53.55043 1.5594,0 8.0906,4.84436 14.514,10.76523 7.5677,6.97564 14.2176,10.76523 18.8908,10.76523 5.5845,0 14.2515,6.95149 38.4111,30.80805 38.3378,37.85658 46.8263,42.24549 85.057,43.97683 21.7606,0.98547 33.8031,-0.13663 62.5939,-5.83229 19.6073,-3.87888 38.6448,-7.05251 42.3057,-7.05251 6.5881,0 7.5489,1.66232 10.1116,17.4935 0.7767,4.79867 2.6515,5.30102 17.2798,4.63048 12.9936,-0.5956 16.7506,0.13933 18.0521,3.53124 0.9043,2.35586 3.4425,23.888368 5.6408,47.85002 5.395,58.8070911 13.4104,84.071043 34.1418,107.612585 7.5943,8.623778 14.674,12.287563 45.3325,23.460238 20.6579,7.528287 38.2605,15.600878 40.8009,18.711761 2.4577,3.009232 5.1978,5.471335 6.0894,5.471335 0.8918,0 4.6191,-6.779432 8.2836,-15.065417 24.0694,-54.424944 83.1657,-110.966993 143.1255,-136.939375 54.8098,-23.741529 104.5672,-32.052828 183.0344,-30.573445 34.7653,0.655451 55.5752,2.101297 57.4667,3.992717 2.1592,2.159354 2.0759,10.303034 -0.3074,29.966413 -1.7998,14.850688 -2.5313,28.932397 -1.6259,31.292708 1.2812,3.337861 5.7025,4.300636 19.8978,4.332689 10.0379,0.02261 19.9539,1.11945 22.0356,2.437296 3.1991,2.025363 1.99,16.2808844 -7.8154,92.13608 -6.3802,49.356985 -12.4372,90.702755 -13.46,91.879495 -1.023,1.17673 -11.4335,-1.17892 -23.1346,-5.23477 -28.3452,-9.82502 -63.8906,-10.56709 -80.7385,-1.68559 -12.1064,6.38201 -26.9523,21.84973 -30.8754,32.1681 -3.66,9.62622 -3.0722,26.66964 1.2627,36.61775 2.0754,4.76315 17.0275,24.5444 33.2266,43.95831 16.1991,19.41391 34.0772,43.03014 39.7294,52.4805 5.6519,9.45037 16.5317,25.05456 24.1778,34.67599 7.6458,9.62143 16.6635,22.09146 20.0394,27.71122 3.3761,5.61971 7.2585,9.84429 8.6276,9.38789 1.3694,-0.4564 44.3105,-105.5747 95.4249,-233.59624 51.1144,-128.021564 94.3791,-234.248159 96.1437,-236.059148 2.4084,-2.471452 32.0137,-3.478333 118.698,-4.036962 l 115.4894,-0.744256 8.2862,30.950047 c 4.5574,17.022515 9.2661,32.463893 10.4634,34.314154 1.2,1.854176 7.5082,3.364141 14.0543,3.364141 h 11.8768 l 4.0458,14.1293661 c 2.2252,7.7711512 30.6973,115.7781479 63.2717,240.0155379 32.5742,124.23737 60.3643,227.02423 61.755,228.41523 3.0267,3.02659 -3.6627,25.2131 83.4779,-276.8689 39.8521,-138.151331 71.4272,-243.002751 73.6722,-244.644462 6.4244,-4.697611 181.8021,-32.510313 184.9774,-29.335081 1.5043,1.504426 8.4976,17.787517 15.5401,36.184654 12.4096,32.416923 13.0515,33.449639 20.8004,33.45961 4.3973,0.0061 9.2739,0.840031 10.8364,1.8541362 1.5627,1.014105 12.4379,27.9561618 24.1675,59.8712908 11.7296,31.915108 22.6637,58.027472 24.2987,58.027472 1.6349,0 22.0482,-44.810278 45.3625,-99.5783848 23.3143,-54.7681062 43.5039,-99.5783892 44.866,-99.5783892 4.5371,0 178.4117,64.542346 181.09,67.220789 1.4497,1.449471 3.1761,12.932911 3.8365,25.5187449 0.6607,12.5858131 2.5643,23.9382541 4.2306,25.2276391 1.666,1.289386 9.459,4.605366 17.3179,7.368848 7.8586,2.763523 15.595,6.598878 17.192,8.523056 1.7662,2.128024 7.9395,88.085067 15.7591,219.425517 19.9099,334.41957 22.297,378.73997 20.4945,380.5423 -1.9743,1.97415 -174.7958,30.42417 -185.104,30.47195 -6.4721,0.0299 -7.16,-1.08174 -8.7235,-14.09683 -0.9333,-7.77115 -1.7076,-17.99392 -1.7205,-22.71727 0,-4.72337 -1.0733,-9.23671 -2.3562,-10.02967 -1.283,-0.79298 -12.4855,0.345 -24.8945,2.52877 -12.4093,2.18382 -26.3517,3.97221 -30.9841,3.97423 l -8.4221,0.002 -1.6978,-37.00548 c -3.7717,-82.21428 -5.0157,-100.2512 -6.9139,-100.2512 -1.0918,0 -4.1534,4.80845 -6.8037,10.68546 -2.65,5.877 -6.7702,12.42025 -9.1554,14.54057 -3.0451,2.70664 -21.0027,5.23975 -60.2807,8.50315 -30.7693,2.55643 -56.6523,3.93951 -57.5184,3.07354 -0.8658,-0.86599 -3.8424,-9.75384 -6.6148,-19.75081 -2.772,-9.99695 -6.5603,-19.56201 -8.4187,-21.25568 -2.3358,-2.12899 -10.0238,-2.48337 -24.9091,-1.14827 -11.8418,1.06208 -22.9087,1.41223 -24.5931,0.77804 -1.6842,-0.6342 -4.5789,-6.56979 -6.4327,-13.19022 -1.8536,-6.62044 -4.6706,-11.60375 -6.2597,-11.07398 -1.5894,0.52975 -11.0993,37.07467 -21.1333,81.21094 -10.0341,44.13628 -19.6877,81.98764 -21.4526,84.11415 -2.7407,3.30238 -18.6514,3.58234 -109.0642,1.91933 -93.7413,-1.72424 -106.8511,-1.4591 -114.5559,2.31688 -6.5318,3.20131 -34.915,6.05409 -113.8891,11.447 -57.8537,3.95071 -107.5083,6.73842 -110.3437,6.19494 -4.2243,-0.80981 -5.6404,-4.62512 -7.8458,-21.14066 l -2.6915,-20.15251 h -30.0374 c -16.5202,0 -30.7772,-0.73311 -31.6821,-1.62912 -0.9044,-0.89602 -5.0393,-31.50654 -9.1889,-68.02343 -4.1494,-36.51684 -8.6643,-67.40672 -10.0331,-68.64419 -3.2356,-2.92472 -56.9264,0.53369 -60.0883,3.87048 -1.9129,2.0188 -41.6712,125.60384 -61.1081,189.94841 -2.0702,6.85367 -5.2741,13.65131 -7.1198,15.10585 -2.339,1.8436 -30.5648,-7.40185 -93.186,-30.52339 -49.4068,-18.24244 -90.5838,-33.93512 -91.5044,-34.87267 -0.9208,-0.93754 -1.6741,-5.99624 -1.6741,-11.24152 0,-8.60907 -0.9871,-9.8816 -10.1483,-13.08016 l -10.1482,-3.54326 -19.4563,20.37763 c -33.4769,35.06255 -72.6661,58.39437 -119.0342,70.86866 -31.279,8.4148 -95.8799,10.4266 -133.3924,4.15407 -36.1463,-6.04413 -38.2219,-6.98604 -42.5247,-19.29847 -6.5601,-18.77229 -9.8268,-21.87619 -26.5309,-25.20994 -8.5515,-1.70664 -20.0116,-4.24712 -25.4668,-5.64553 -11.4526,-2.93578 -7.3953,6.10492 -54.2362,-120.84614 -15.5653,-42.18625 -29.1244,-78.82168 -30.1314,-81.41205 -1.0069,-2.59038 -3.7363,-4.70979 -6.0648,-4.70979 -6.2504,0 -25.4667,21.82515 -34.8922,39.62896 -11.7276,22.15315 -16.1426,39.09581 -23.5315,90.30144 -3.5834,24.83483 -7.2431,46.33165 -8.1324,47.77072 -2.5256,4.08662 -11.0133,3.21064 -52.6671,-5.43559 -43.3569,-8.99982 -68.9856,-10.10104 -92.5053,-3.97487 -30.8349,8.0314 -45.8409,18.41113 -86.9856,60.16807 l -38.4299,39.00181 -15.4743,-15.31274 c -8.5107,-8.42199 -17.4802,-15.31274 -19.9321,-15.31274 -2.452,0 -11.4999,-8.13183 -20.1067,-18.07077 -36.3397,-41.96377 -38.5295,-43.80713 -58.6907,-49.39762 -27.299,-7.56978 -55.6538,-6.75325 -104.2592,3.00239 -51.598,10.3563 -53.4579,10.1773 -57.2393,-5.50799 -2.8705,-11.9078 -3.1208,-12.12501 -14.9159,-12.95362 -6.5981,-0.46348 -12.8539,-1.68442 -13.9019,-2.7132 -1.0484,-1.02876 -3.7899,-16.99922 -6.093,-35.4899 -5.2315,-42.00967 -10.4406,-63.97565 -19.3704,-81.68529 -14.241,-28.24344 -20.2258,-33.29295 -64.4912,-54.41595 -24.8314,-11.84927 -42.1128,-21.73411 -43.9286,-25.12708 -1.6465,-3.07632 -7.6711,-7.97957 -13.388,-10.89616 -5.7168,-2.91656 -12.292,-7.20028 -14.611,-9.5194 -5.3488,-5.34877 -3.5281,-10.37232 15.5199,-42.81944 36.6651,-62.45737 44.5073,-89.93461 36.4245,-127.62306 -3.6498,-17.01702 -21.8904,-52.93355 -26.8833,-52.93355 -2.7849,0 -4.801,6.9499 -7.4167,25.56741 -1.9753,14.06209 -4.4504,26.4482 -5.5,27.5247 -1.0492,1.07649 -10.9579,-1.32102 -22.0194,-5.3278 -16.4827,-5.97065 -24.7242,-7.29496 -45.6788,-7.33987 -23.0545,-0.0494 -26.796,0.66739 -38.0674,7.2935 -15.4621,9.08964 -25.4239,20.65134 -29.4916,34.22861 -5.6037,18.70258 -2.1969,25.25646 38.6961,74.44733 24.7522,29.77447 42.8804,54.50578 51.2912,69.97401 7.1545,13.15803 17.7182,30.5847 23.4749,38.72592 23.2741,32.916 36.7108,80.6125 33.3591,118.41753 -7.0157,79.13374 -48.9726,136.49468 -126.0404,172.31402 -39.0601,18.15427 -63.1117,22.76396 -118.7374,22.75694 -47.3892,-0.006 -85.4951,-4.84133 -94.0402,-11.9329 -1.658,-1.3761 -5.2004,-8.58056 -7.8721,-16.0099 -2.6716,-7.4293 -6.8725,-14.05618 -9.3354,-14.7264 -2.4632,-0.67019 -11.1394,-2.6717 -19.2806,-4.44774 -8.1413,-1.77608 -17.3102,-4.79532 -20.3757,-6.70949 -3.9106,-2.442 -12.7245,-22.82567 -29.5433,-68.32545 -13.1831,-35.66484 -25.208,-64.8258 -26.7219,-64.80212 -1.5142,0.0242 -7.9808,11.3345 -14.3705,25.13519 -52.0387,112.3913 -172.5949,171.5587 -307.979,151.15174 -46.9239,-7.07298 -84.8013,-22.77864 -114.1582,-47.33491 -8.6315,-7.2199 -25.4676,-19.7534 -37.4142,-27.85221 -46.6673,-31.63743 -80.7479,-78.89065 -97.792,-135.59018 -2.358,-7.84438 -5.4291,-14.27837 -6.8243,-14.2977 -1.3953,-0.0182 -5.36,8.65954 -8.8104,19.28642 -9.17442,28.25635 -23.00586,56.83398 -39.51925,81.65223 -16.29338,24.48734 -56.67935,64.94771 -80.49217,80.64051 -65.7831,43.35156 -158.12153,59.78869 -235.47012,41.91596 -33.90887,-7.83524 -83.89392,-33.30437 -97.47264,-49.66555 -2.1289,-2.56537 -14.36493,-11.72041 -27.19096,-20.34459 -31.15767,-20.95034 -52.91346,-41.54159 -74.56975,-70.57758 l -17.95156,-24.06843 -0.7537,14.46535 c -0.41459,7.95594 0.98119,40.50374 3.1018,72.32846 2.12062,31.8247 2.83819,58.93805 1.5946,60.25186 -2.61716,2.76495 -255.03338,21.27299 -260.66292,19.11273 -2.94868,-1.1315 -3.38184,-5.42761 -2.02228,-20.05627 0.95164,-10.23897 0.71227,-19.24547 -0.53191,-20.01439 -1.24415,-0.76896 -15.11165,-0.51814 -30.81663,0.55736 -15.70495,1.07551 -29.82733,1.53116 -31.38301,1.01261 -1.55569,-0.51757 -2.82854,-5.07974 -2.82854,-10.13713 0,-5.05742 -1.11996,-9.19531 -2.48881,-9.19531 -1.36885,0 -40.331365,18.77187 -86.58338,41.71526 -46.252035,22.9434 -85.688326,41.71527 -87.636241,41.71527 -1.947915,0 -6.371678,-4.54158 -9.830607,-10.0924 z M 3939.4522,610.83773 c 5.0803,-15.33424 2.4777,-21.21214 -8.8117,-19.89986 -6.2811,0.73019 -6.9137,1.85674 -6.4967,11.57413 0.5703,13.29006 5.6619,27.32874 8.6999,23.9872 1.2287,-1.35119 4.2025,-8.39888 6.6085,-15.66147 z M 1712.753,454.18398 c 13.8712,-5.5502 21.3652,-16.17581 23.3746,-33.14293 2.2946,-19.37342 -6.2258,-34.64828 -43.6424,-78.24024 -37.1467,-43.2778 -44.7348,-53.77412 -55.4901,-76.75727 -8.0392,-17.17958 -12.9635,-21.96027 -13.1108,-12.7287 -0.04,2.59039 -3.5549,44.6757 -7.8079,93.52293 -4.2529,48.84724 -7.0905,89.85871 -6.3057,91.13661 2.0964,3.41362 22.0676,11.82271 38.7035,16.29657 19.9045,5.35277 50.7878,5.31099 64.2788,-0.087 z m -2416.36607,-9.31979 c 9.09105,-4.58914 15.35529,-9.29091 14.0526,-10.54747 -3.10491,-2.99503 -33.25338,-8.43213 -36.30339,-6.54711 -2.76368,1.70806 -3.24083,20.92529 -0.58548,23.5806 2.95025,2.95025 5.67775,2.17558 22.83627,-6.48602 z M 2974.8047,421.51741 c 12.8682,-6.56172 19.5657,-16.85545 21.0556,-32.36182 1.6587,-17.26039 -4.8202,-31.98453 -24.047,-54.65303 -63.2741,-74.59918 -77.2608,-95.18399 -85.523,-125.86835 -6.4622,-23.9982 -15.6715,-2.09169 -16.0387,38.15066 -0.2787,30.57108 6.6636,51.81646 32.067,98.12917 10.3681,18.90239 18.8512,35.80579 18.8512,37.56314 0,4.10727 -7.3491,7.96856 -29.1878,15.33523 -9.6754,3.26386 -18.0008,7.1606 -18.5002,8.65944 -1.0787,3.23545 14.1443,10.45069 32.8952,15.59154 20.1771,5.53176 57.0858,5.23725 68.4277,-0.54598 z M -1001.4841,288.97467 c 10.31302,-126.07801 11.27975,-148.07448 5.15158,-117.21673 -2.04189,10.28188 -4.65848,19.64028 -5.81468,20.79642 -1.1562,1.15617 -11.1522,-1.17616 -22.2135,-5.18297 -16.5272,-5.98667 -24.7058,-7.29481 -45.89,-7.33986 -24.0389,-0.0511 -26.6667,0.4943 -38.9407,8.08278 -19.2688,11.91293 -29.2843,27.44296 -29.2843,45.40785 v 14.33135 l 32.4204,38.76446 c 37.9416,45.36589 48.8498,60.24592 58.9431,80.40461 4.0762,8.14122 12.9308,22.55174 19.677,32.02342 10.4227,14.63349 12.5746,16.45331 14.3203,12.11089 1.1299,-2.8107 6.3638,-57.79268 11.6308,-122.18222 z m 1720.90187,41.59827 c 14.56475,-7.92718 27.8181,-21.88893 36.93255,-38.90697 3.98488,-7.44018 5.04499,-15.17488 5.04499,-36.80813 0,-23.72968 -0.76278,-28.40361 -5.70968,-34.98699 -5.53063,-7.35993 -6.45994,-7.59417 -29.60445,-7.4619 -20.38968,0.11647 -25.86845,1.16959 -37.35118,7.17923 -18.05592,9.4498 -37.22765,29.69967 -45.69558,48.26535 -9.04764,19.83612 -11.9593,47.88067 -5.92707,57.08692 10.99265,16.77713 56.15575,19.86762 82.31042,5.63249 z m -891.75193,-80.34906 c 12.49635,-13.04195 20.90702,-33.67674 19.53657,-47.93133 -0.76783,-7.98655 -1.77967,-8.93737 -10.27132,-9.65192 -15.52801,-1.3066 -19.09136,3.5406 -24.52065,33.3554 -2.66875,14.6553 -4.90434,28.76539 -4.96801,31.35577 -0.20164,8.20107 8.46117,5.14781 20.22341,-7.12792 z"
           id="path22"
           inkscape:connector-curvature="0" />
        <path
           style="fill:#d8251c;stroke-width:2.69130754"
           d="m -87.712302,708.81866 c -7.62358,-13.32197 -14.423818,-24.22177 -15.111658,-24.22177 -0.68784,0 -5.99846,2.42218 -11.80141,5.38263 -5.80295,2.96042 -10.98871,5.3826 -11.52397,5.3826 -0.53522,0 -23.29138,-39.91994 -50.56925,-88.71102 -27.27783,-48.79102 -51.03844,-88.75694 -52.80136,-88.81314 -1.7629,-0.0563 -3.80193,0.8632 -4.53112,2.04307 -0.7292,1.17988 -7.56119,40.23748 -15.18219,86.79467 -7.62099,46.55721 -15.27069,85.99199 -16.99934,87.63289 -3.50971,3.33155 -229.39171,-4.04162 -234.97359,-7.66994 -2.26329,-1.47115 -1.98185,-6.31294 1.07142,-18.43394 3.53235,-14.02277 3.58794,-16.78892 0.37819,-18.82124 -5.66814,-3.58888 -28.30132,-2.93859 -31.29723,0.89925 -1.44439,1.85028 -4.18496,12.74293 -6.09016,24.20595 -1.90521,11.46301 -4.80778,21.91819 -6.45016,23.23376 -3.2434,2.59803 -414.07833,-22.32246 -419.09247,-25.42137 -1.95399,-1.20764 -2.33712,-7.52874 -1.13611,-18.74378 2.15826,-20.15348 4.30228,-18.91046 -37.09239,-21.50451 l -29.1082,-1.82408 -18.0398,17.41602 c -31.3064,30.22376 -70.0659,51.86999 -111.4716,62.25414 -49.6163,12.44329 -110.2568,11.95411 -161.2697,-1.30093 -8.8639,-2.30316 -10.3663,-4.03464 -14.4465,-16.64988 -2.5045,-7.74368 -5.9249,-15.45448 -7.6007,-17.13513 -1.6759,-1.6806 -12.3718,-5.08011 -23.7687,-7.55438 l -20.7216,-4.49875 -5.2262,-13.97604 c -17.1383,-45.83191 -72.8519,-197.93839 -74.2924,-202.82909 -1.2093,-4.10593 0.065,-7.5079 4.2831,-11.43804 8.0252,-7.47656 10.7473,-7.14694 30.1196,3.64733 42.3201,23.58086 89.8378,30.74794 116.162,17.52072 16.3967,-8.23894 22.8873,-19.64991 22.8524,-40.17655 -0.034,-19.78075 -7.5846,-32.44105 -45.7723,-76.74426 -35.2347,-40.87724 -43.2691,-52.02669 -53.8572,-74.73879 -12.1139,-25.98482 -16.9663,-48.46867 -16.9777,-78.66573 -0.02,-53.86417 20.1741,-99.661423 64.8094,-146.977157 44.0929,-46.740851 99.4315,-75.44595 174.2775,-90.400834 19.3038,-3.857054 37.4276,-4.839711 89.2627,-4.839711 35.7725,0 65.8058,0.765347 66.7407,1.700772 0.9349,0.935445 0.022,13.90049 -2.0284,28.81123 -2.0505,14.91076 -3.0177,28.1958359 -2.1493,29.5224219 0.8684,1.3265658 10.914,3.1001241 22.32371,3.9412049 18.39845,1.356298 20.91883,0.9811432 22.28296,-3.3167879 0.84592,-2.6653232 4.83273,-5.4646533 8.85951,-6.2206955 33.9301,-6.3705072 415.46095,-58.9658464 416.94895,-57.4778384 1.06263,1.062619 -3.05993,17.012223 -9.16122,35.443577 -6.54837,19.7819194 -10.02456,34.1720527 -8.4847,35.123726 1.43471,0.886699 12.8995,0.151588 25.47726,-1.6340207 12.5778,-1.785427 23.67577,-2.4391726 24.66217,-1.4527814 2.49203,2.4920371 -66.51006,208.8306941 -70.32216,210.2860041 -1.69932,0.64874 -37.55432,-10.32728 -79.67776,-24.39117 -42.9061,-14.32517 -77.60873,-24.55005 -78.90885,-23.24993 -3.93091,3.93091 0.91191,54.38825 5.38482,56.10469 2.12659,0.81603 19.97658,-2.92188 39.66668,-8.30646 19.69006,-5.38458 36.68458,-9.79013 37.76556,-9.79013 1.08099,0 1.09535,16.80442 0.0321,37.34318 -1.06344,20.53875 -0.89683,37.98065 0.37021,38.75978 1.26704,0.77912 9.81359,-0.54248 18.99227,-2.93689 9.1787,-2.3944 17.24963,-3.78937 17.93547,-3.09996 0.6858,0.68947 -0.002,29.50987 -1.53281,64.04541 -1.72039,38.86239 -1.82263,63.74897 -0.26832,65.30328 1.55431,1.55431 21.78815,-6.79291 53.0943,-21.90346 27.82059,-13.42819 51.18317,-23.8146 51.91681,-23.08097 0.73365,0.73366 -2.43068,19.27205 -7.03185,41.19647 -9.97402,47.5257 -10.23305,51.97346 -3.02705,51.97346 2.92631,0 7.00855,-2.72495 9.07162,-6.05544 2.06309,-3.3305 27.6791,-105.3647 56.92453,-226.74268 29.24542,-121.37797 54.37846,-222.20211777 55.85122,-224.0536702 3.7504,-4.7149694 70.60896,-25.8601908 102.95849,-32.5624558 162.64048,-33.696358 299.9782238,8.541969 351.371915,108.06468 6.265506,12.133008 16.152267,27.284896 21.970558,33.670866 12.161044,13.34759 26.90199,42.97858 33.051352,66.43704 6.065935,23.14023 8.054465,66.30708 4.252315,92.30996 -6.034815,41.27248 -20.898948,75.41983 -46.792424,107.49621 -12.973261,16.07102 -41.549419,40.95385 -58.5988806,51.0252 -4.4212602,2.61169 -7.7012915,6.18285 -7.2889563,7.93588 1.2608239,5.36058 118.0798609,124.74411 122.0644609,124.74411 2.05065,0 4.29274,-2.72495 4.98242,-6.05544 0.68967,-3.33049 9.8036,-125.34766 20.25319,-271.14925 10.4496,-145.80159 19.74319,-272.709944 20.65247,-282.0185317 l 1.6532,-16.9247193 81.0874,1.54991 c 44.59807,0.852445 88.54591,2.194896 97.66187,2.983214 l 16.57448,1.433283 1.90754,28.743712 c 1.04913,15.809045 2.96511,30.065091 4.25768,31.680077 1.29258,1.615027 8.64938,3.159367 16.34841,3.431862 7.69903,0.272494 14.42561,0.922889 14.948,1.445333 0.52258,0.522443 2.13515,20.172152 3.58361,43.666038 3.23764,52.516192 4.8274,65.592272 7.97401,65.592272 1.34471,0 6.59135,-8.97429 11.65915,-19.94285 17.71317,-38.338 51.89332,-85.118615 81.76926,-111.913322 47.78027,-42.85257 101.20824,-66.365874 166.19122,-73.139552 116.2003,-12.11248 216.57068,42.61862799 274.75904,149.823924 5.62409,10.36154 15.60124,25.50013 22.1718,33.64135 6.57036,8.1412 13.82639,18.73822 16.12463,23.54893 5.4602,11.43037 11.27181,11.43037 11.20177,0 -0.0303,-4.81071 -2.42763,-42.65722 -5.329,-84.103355 -2.90156,-41.446133 -5.29952,-82.3203704 -5.32919,-90.831638 -0.0525,-15.190098 0.0868,-15.475026 7.52914,-15.475026 4.17038,0 64.92764,-3.632115 135.01634,-8.07136 70.0885,-4.439265 128.1392,-7.34828 129.0013,-6.464468 0.8621,0.883792 1.5674,15.718476 1.5674,32.9659705 V 23.880861 l 18.8393,1.345661 18.8391,1.34564 -0.7186,26.913092 c -0.395,14.802186 -2.5863,93.522936 -4.8694,174.934996 -2.2831,81.41205 -3.7764,163.76607 -3.3186,183.00891 l 0.8326,34.987 10.6469,0.86835 c 17.3154,1.41221 28.0353,-1.91928 39.4979,-12.27489 26.6005,-24.03213 27.2468,-28.20746 41.5417,-268.38434 6.6919,-112.438847 12.5271,-204.794276 12.9671,-205.234305 0.4401,-0.440008 47.0968,3.448716 103.6819,8.641642 56.5849,5.192905 105.3928,9.441666 108.4617,9.441666 5.4214,0 5.527,0.841868 3.7049,29.6326913 -1.4743,23.2999497 -1.1247,29.8565207 1.6356,30.6800607 1.9307,0.576034 10.7771,2.077178 19.6584,3.335822 l 16.1478,2.288473 -0.9816,27.585892 c -1.055,29.652758 1.3554,34.521918 9.3256,18.839167 13.9596,-27.467527 55.303,-72.098843 85.8517,-92.67907192 36.6875,-24.71587408 79.7314,-41.69915008 129.1827,-50.97013308 21.4153,-4.014859 39.668,-5.045556 89.3525,-5.045556 38.0557,0 63.4804,1.051023 65.1047,2.691321 1.7601,1.777172 1.3936,11.764736 -1.0787,29.404664 -2.059,14.69234 -3.2287,27.5466315 -2.5992,28.5650964 0.6294,1.0184447 9.6956,2.4635559 20.1473,3.2113627 10.4515,0.7478269 19.7084,2.0653701 20.5711,2.9279073 0.8625,0.8625166 0.071,13.7960336 -1.7605,28.7410676 -1.8305,14.945054 -2.5873,27.913975 -1.6818,28.819829 2.509,2.50875 22.0925,-3.952407 46.6738,-15.39897 26.9941,-12.570029 44.9402,-29.600456 56.7762,-53.8787032 10.924,-22.4078418 15.3639,-40.5631688 21.8773,-89.4596538 2.9129,-21.867289 6.0302,-40.946369 6.9274,-42.397969 1.8732,-3.03108 3.1731,-2.78293 53.7818,10.26881 32.8504,8.47193 41.8165,9.72929 69.9739,9.81272 27.6544,0.0819 34.533,-0.80166 47.8638,-6.14826 21.0502,-8.44262 42.6132,-29.03677 66.268,-63.29022 10.6446,-15.41398 21.627,-30.08271 24.4054,-32.59719 4.8101,-4.3528 5.6403,-4.0294 17.3364,6.75165 9.3358,8.60571 13.7349,10.94414 18.3276,9.74308 5.0213,-1.31311 11.9657,4.27863 41.067,33.06792 32.1572,31.81285 36.3449,35.04056 51.1713,39.44206 24.0401,7.13673 57.2179,6.18269 101.844,-2.92853 40.5895,-8.28714 42.0129,-8.04273 42.0999,7.22897 0.054,9.66077 2.0784,10.47143 19.1394,7.66793 18.7527,-3.08145 20.3324,-1.04551 22.5222,29.031195 4.8361,66.411978 9.7326,88.1658724 25.8207,114.711257 15.0098,24.765751 15.6173,25.208585 53.7543,39.169125 20.5167,7.510525 38.185,15.642803 40.7144,18.739798 7.4472,9.118629 12.0457,6.479909 20.6127,-11.82745 31.1575,-66.5821534 93.3741,-119.719873 170.0387,-145.226343 47.5679,-15.825875 71.1001,-18.989664 141.8328,-19.068534 38.6028,-0.04305 63.4778,0.969493 65.1604,2.652359 1.8339,1.834643 1.447,11.801462 -1.1875,30.573858 -2.1499,15.318514 -3.3555,28.74676 -2.6795,29.840514 0.6761,1.093775 11.1805,2.756095 23.3437,3.694022 12.1627,0.937948 23.0244,2.634501 24.1364,3.770139 2.1557,2.201133 -19.7981,175.54748 -22.8599,180.50172 -1.2303,1.99038 -7.6323,0.65116 -19.9111,-4.16509 -15.3288,-6.01253 -22.4221,-7.12264 -46.3569,-7.25475 -26.0039,-0.14351 -29.2449,0.42388 -40.6211,7.11172 -23.5278,13.83147 -33.534,34.32418 -29.3406,60.08864 2.1541,13.23631 5.0341,17.71473 32.3405,50.28921 16.4869,19.66744 34.9282,44.23657 40.9804,54.59809 6.0522,10.36155 16.7356,24.89462 23.7408,32.2957 7.0051,7.4011 17.1548,20.45504 22.5551,29.00876 5.3998,8.55371 10.8457,14.91701 12.102,14.14069 1.2559,-0.77633 44.2826,-106.47856 95.6146,-234.89379 51.3318,-128.415264 94.7519,-234.873209 96.4894,-236.573252 2.2444,-2.196182 35.8204,-3.364836 115.9834,-4.036962 l 112.8248,-0.945975 8.522,32.295701 8.522,32.295674 14.0151,0.817767 c 11.4204,0.666341 14.4941,1.912208 16.6,6.7282828 1.4216,3.2507634 30.5122,112.4862842 64.6459,242.7455742 34.1335,130.25929 63.172,237.96543 64.5294,239.34696 1.3579,1.38154 3.0849,1.89543 3.8384,1.14193 0.7535,-0.75346 35.3967,-119.35937 76.9848,-263.56871 41.5882,-144.209329 75.9867,-262.576598 76.4409,-263.038346 2.3754,-2.414163 183.0171,-30.282042 183.7778,-28.3517 0.494,1.252996 6.5884,17.41678 13.5432,35.91953 l 12.6452,33.6413339 11.0742,-0.8686331 11.074,-0.8686528 22.8145,61.423058 c 14.5268,39.110064 24.1539,61.42308 26.5014,61.42308 2.2926,0 19.7042,-37.666287 46.0315,-99.578383 26.2299,-61.683584 43.6801,-99.443204 45.855,-99.223155 5.4943,0.555956 172.3849,62.480567 174.7242,64.831148 1.1473,1.152976 3.0596,12.7520151 4.2493,25.7756572 l 2.1634,23.6793438 18.5938,6.487316 c 10.2269,3.568029 19.5438,7.445409 20.7046,8.61637 3.0239,3.050652 37.7795,596.263293 35.0917,598.951083 -3.5122,3.51212 -186.3863,32.36798 -188.9411,29.81315 -1.2557,-1.25584 -2.4987,-12.36782 -2.7619,-24.69335 -0.3409,-15.97947 -1.5207,-22.81001 -4.1113,-23.80405 -1.9978,-0.76676 -15.0053,0.54443 -28.905,2.91374 -13.9001,2.36933 -27.0943,4.30784 -29.3211,4.30784 -3.4072,0 -4.3274,-8.41525 -5.8116,-53.15332 -2.0952,-63.15378 -4.0676,-86.79468 -7.2415,-86.79468 -1.2864,0 -5.9963,7.24512 -10.4664,16.10028 -5.567,11.02801 -10.0306,16.49058 -14.1681,17.33917 -14.4408,2.96174 -108.474,9.18877 -110.355,7.30791 -1.1419,-1.14218 -4.845,-11.68591 -8.2284,-23.43051 l -6.1519,-21.35381 -25.7673,0.9481 -25.7671,0.94806 -3.2964,-13.74008 c -3.1597,-13.17139 -6.7538,-18.69612 -10.0304,-15.41925 -0.844,0.84398 -10.1869,40.02286 -20.7615,87.06418 l -19.2269,85.52961 -108.3151,0.70342 c -87.6273,0.56909 -108.5749,0.0269 -109.6755,-2.84244 -0.7485,-1.9502 0.8889,-10.77443 3.6389,-19.60938 2.7495,-8.83495 4.5046,-17.54732 3.9001,-19.36087 -1.5619,-4.6864 -21.976,-4.27096 -23.8011,0.48438 -0.7979,2.07996 1.1517,12.52132 4.3328,23.20306 3.4815,11.68975 4.8075,20.39788 3.3309,21.87436 -4.0702,4.07045 -224.5495,19.26162 -226.7961,15.62643 -1.0439,-1.68914 -2.7015,-11.71585 -3.6837,-22.2816 -0.9818,-10.56572 -2.6595,-20.07557 -3.7279,-21.13295 -1.0684,-1.0574 -14.0535,-0.96855 -28.8556,0.19761 -14.8024,1.16595 -27.7465,1.39913 -28.7646,0.51816 -1.0183,-0.88095 -5.2571,-31.87894 -9.4194,-68.88441 l -7.5683,-67.28279 -28.2588,0.68196 c -15.5423,0.37508 -30.7755,1.25429 -33.8521,1.95375 -4.7931,1.08992 -10.182,15.9527 -37.6782,103.92262 -17.6467,56.45791 -33.5475,103.22383 -35.3351,103.92425 -2.7914,1.09371 -165.8604,-57.41892 -179.122,-64.27281 -3.5699,-1.84497 -4.5703,-5.18689 -4.037,-13.48685 0.696,-10.83427 0.4938,-11.10701 -11.1658,-15.058 l -11.8745,-4.02391 -5.3514,7.77087 c -18.1811,26.40042 -62.8945,60.27935 -98.8258,74.87967 -36.3856,14.78462 -59.7128,18.83864 -108.9088,18.92703 -46.7395,0.084 -87.1326,-5.42059 -94.8197,-12.92153 -1.8237,-1.77933 -5.5581,-9.87479 -8.299,-17.98989 l -4.9835,-14.75477 -15.9229,-3.5802 c -37.8599,-8.5127 -35.5673,-6.70727 -46.721,-36.78942 -5.4885,-14.80218 -22.4348,-60.52078 -37.6582,-101.59686 -21.8111,-58.85028 -28.6794,-74.68379 -32.3966,-74.68379 -5.8902,0 -26.3323,21.59566 -35.9064,37.93272 -12.084,20.61947 -18.0539,42.12525 -24.9567,89.90439 -3.6357,25.16374 -7.3133,48.00652 -8.1724,50.76179 -1.8433,5.91015 -6.6045,5.44239 -54.8357,-5.38769 -56.5792,-12.70448 -95.2817,-8.25946 -131.412,15.0927 -9.154,5.91637 -31.3793,25.91722 -49.3898,44.44631 -18.0105,18.52909 -34.283,33.68925 -36.161,33.68925 -1.8776,0 -9.1125,-6.60015 -16.0768,-14.66699 -6.9646,-8.06684 -14.962,-15.0306 -17.7726,-15.47503 -2.8103,-0.4444 -15.6785,-13.52446 -28.5956,-29.06677 -26.0503,-31.34452 -31.479,-34.43019 -71.6195,-40.70864 -21.6343,-3.38382 -30.4809,-2.49694 -89.869,9.00941 -49.0138,9.49635 -47.1423,9.88646 -50.1934,-10.46128 l -1.7494,-11.66563 h -11.7873 c -6.4828,0 -12.43,-1.04042 -13.216,-2.31205 -0.7858,-1.27164 -3.321,-17.92411 -5.6334,-37.00547 -5.2578,-43.38287 -9.9659,-62.28104 -20.3005,-81.48749 -14.1201,-26.24113 -19.6132,-30.67899 -61.7679,-49.90167 -46.3912,-21.15446 -45.9213,-20.87965 -46.8092,-27.37387 -0.4124,-3.01619 -6.4093,-8.21848 -14.6233,-12.6851 -8.3496,-4.54057 -13.9057,-9.38902 -13.8776,-12.11088 0.026,-2.49642 9.7191,-21.43635 21.5406,-42.08868 27.7085,-48.40567 32.5458,-61.36705 34.1985,-91.63306 1.1029,-20.20174 0.3409,-27.12513 -4.5923,-41.71527 -6.9177,-20.45983 -23.158,-48.44354 -28.1146,-48.44354 -2.3604,0 -4.5516,8.97261 -6.9617,28.50753 -2.0294,16.44957 -4.8629,29.024 -6.6991,29.72859 -1.7503,0.67159 -12.3679,-1.86254 -23.5953,-5.6314 -15.1925,-5.09996 -25.9924,-6.85248 -42.2282,-6.85248 -25.6636,0 -37.4937,4.15153 -52.1414,18.29775 -13.9614,13.48329 -17.9041,21.90207 -18.3002,39.07649 l -0.335,14.54146 33.5035,40.23037 c 37.4994,45.02806 46.5743,57.52383 57.3261,78.93677 4.088,8.14121 12.0225,19.81328 17.6322,25.93792 12.692,13.85655 30.6186,50.46345 36.0622,73.64046 4.8185,20.51438 5.4015,56.95999 1.2729,79.57212 -13.8129,75.65246 -78.3904,138.55204 -165.5574,161.25624 -46.7537,12.17779 -109.8284,11.59552 -160.176,-1.47862 -8.3926,-2.17944 -10.355,-4.28148 -14.287,-15.30426 -7.1493,-20.04124 -7.4649,-20.30683 -31.0473,-26.1161 l -22.3302,-5.50088 -24.6755,-67.10064 c -13.5719,-36.90536 -26.0106,-67.54556 -27.6417,-68.08932 -1.6312,-0.54374 -9.1421,11.94081 -16.691,27.74342 -15.9372,33.3627 -33.311,57.86776 -57.2514,80.74862 -44.5947,42.62147 -101.1544,67.6428 -166.9246,73.84511 -81.2444,7.66163 -160.2667,-13.68718 -202.4881,-54.70439 -9.4344,-9.16551 -24.1136,-20.90338 -32.6203,-26.08414 -42.4553,-25.85656 -79.1329,-78.3132 -96.4399,-137.92951 -2.4709,-8.51127 -5.5226,-15.47503 -6.7815,-15.47503 -1.2592,0 -6.7793,13.0192 -12.2674,28.93155 -40.12936,116.35309 -126.64852,189.49545 -242.80341,205.26341 -30.98449,4.20614 -90.00446,2.09311 -113.89036,-4.07745 -30.46594,-7.8704 -70.47203,-29.01053 -90.83204,-47.99766 -9.99128,-9.31753 -26.81249,-22.622 -37.38065,-29.56549 -22.00063,-14.45483 -59.77267,-53.08015 -73.63539,-75.29844 -13.80217,-22.12136 -17.32745,-20.54277 -15.29181,6.84745 4.10317,55.20467 8.00085,128.62412 6.88766,129.73733 -1.71167,1.71162 -255.98396,19.64103 -259.78662,18.31826 -2.15882,-0.75099 -2.64772,-7.63105 -1.61397,-22.71313 l 1.48297,-21.63584 -31.35455,1.95912 -31.35454,1.95912 v -8.48109 c 0,-4.73534 -1.64314,-9.11163 -3.72044,-9.90873 -2.04626,-0.78523 -42.610375,18.02465 -90.142491,41.79971 -47.532135,23.77494 -87.549486,43.22728 -88.927443,43.22728 -1.377936,0 -8.742807,-10.89979 -16.366408,-24.22177 z m 71.692483,-91.39584 c 82.6687,-40.66427 98.124006,-49.15534 97.388512,-53.50454 -0.480843,-2.84325 -38.72076,-44.06141 -84.9776197,-91.59589 -46.2568593,-47.53446 -84.1033753,-87.62052 -84.1033753,-89.0801 0,-1.45957 5.147127,-5.26018 11.438065,-8.44581 56.72133,-28.72276 99.179933,-78.62496 115.51241,-135.7633 8.091525,-28.30789 8.872193,-89.88189 1.47989,-116.72516 C 26.579008,70.965641 -7.244352,31.22137 -59.111336,5.0031605 -121.93437,-26.753255 -224.88636,-32.516402 -317.81912,-9.4790358 c -31.78899,7.8802703 -70.49274,21.0467808 -73.8856,25.1349308 -4.73941,5.710666 -148.96748,604.605935 -146.25625,607.317165 1.32115,1.32115 49.57247,4.24997 107.22513,6.50843 93.31287,3.65545 105.14816,3.66172 107.78405,0.0567 1.62855,-2.22719 9.2091,-42.43006 16.84566,-89.33968 7.63653,-46.90966 14.30715,-85.71281 14.82356,-86.22922 0.5164,-0.51641 11.07272,-2.72061 23.45846,-4.89823 17.92134,-3.15091 23.15456,-3.27666 25.62954,-0.61594 1.71052,1.8389 28.87213,49.36478 60.35917,105.61312 52.14522,93.1521 63.17446,111.68926 66.45292,111.68926 0.60497,0 45.31816,-21.75072 99.362661,-48.33492 z M -268.94994,300.41272 c -2.19907,-3.58632 28.13631,-166.05796 31.3792,-168.06217 6.51961,-4.02935 32.37833,-5.40917 46.86156,-2.50053 18.83519,3.78267 35.22808,13.26325 47.28089,27.34425 11.86627,13.86307 16.46265,30.16755 14.69888,52.14043 -3.55458,44.28254 -37.29851,80.07762 -84.934,90.09679 -16.11662,3.38982 -53.40385,4.05158 -55.28653,0.98123 z m 89.44252,-39.48234 c 10.81363,-7.97802 22.66465,-24.01619 26.80526,-36.27587 4.1981,-12.42985 4.0304,-32.49401 -0.27435,-32.82769 -11.00784,-0.85327 -25.32128,1.1071 -27.93755,3.82636 -2.36178,2.45467 -14.45055,60.93151 -14.45055,69.90138 0,3.83059 7.27154,1.71012 15.85719,-4.62418 z M -1212.6789,647.05321 c 30.5188,-7.60733 67.5507,-25.9549 92.661,-45.90911 46.0522,-36.59597 69.023,-84.4988 69.0345,-143.9627 0.01,-53.46487 -14.0489,-82.92684 -73.2042,-153.40454 -73.4058,-87.45563 -85.7411,-114.80215 -67.5187,-149.68388 14.6067,-27.9604 43.6814,-42.01888 81.1631,-39.2447 11.1753,0.82711 26.1801,3.55661 33.3439,6.0655 11.0292,3.86262 13.5552,3.99473 16.484,0.86225 5.0928,-5.44715 23.656,-150.344848 19.8487,-154.932371 -3.7018,-4.460398 -78.1853,-4.881252 -108.8579,-0.615091 -83.0842,11.555964 -150.1341,47.378407 -195.4756,104.435895 -30.5809,38.482777 -43.4848,72.518087 -43.4848,114.694867 0,54.04936 11.5391,76.88034 77.5334,153.40452 30.2237,35.04622 39.2838,52.7157 39.2047,76.45931 -0.04,11.99591 -1.8362,21.65624 -5.5497,29.84736 -11.9155,26.2828 -27.7494,35.46535 -64.0933,37.16937 -27.926,1.30937 -46.1889,-1.75186 -72.5169,-12.15527 -10.9226,-4.316 -18.0052,-5.81448 -19.6601,-4.15956 -1.6549,1.65493 7.6809,30.4252 25.9145,79.86111 37.104,100.5982 35.9792,97.94922 42.4642,100.00747 33.0635,10.49396 113.0173,11.15344 152.7092,1.25957 z m 3032.6138,0.0896 c 56.6943,-14.21454 111.6852,-52.33436 137.2644,-95.15209 16.3787,-27.41687 22.7842,-50.56581 24.1341,-87.22201 2.1431,-58.18634 -10.0944,-85.40322 -71.7707,-159.62536 -64.0569,-77.08651 -77.9775,-101.66921 -75.0172,-132.47568 2.2619,-23.54163 26.4796,-48.71208 54.0844,-56.21211 14.3703,-3.90433 50.2852,-1.53954 67.2461,4.4278 9.8776,3.47522 13.7527,3.82197 16.1478,1.44491 4.9348,-4.89781 23.5214,-151.407844 19.7849,-155.960023 -2.453,-2.989169 -13.4753,-3.419912 -58.2729,-2.277311 -61.38,1.565534 -91.8534,6.912389 -133.1095,23.355236 -95.1581,37.925923 -162.5566,127.116938 -156.6737,207.332698 1.793,24.44978 10.1191,52.75332 21.3335,72.5198 4.5733,8.06119 22.2362,31.02631 39.2504,51.03359 52.009,61.15842 58.9788,74.15473 56.2004,104.7946 -2.6402,29.11845 -19.0327,49.26301 -46.2991,56.89714 -21.0926,5.90559 -63.1486,2.31556 -90.1375,-7.69439 -13.602,-5.04482 -23.7162,-7.45176 -25.1765,-5.99143 -3.4399,3.44018 60.0334,174.9538 65.9266,178.14171 20.8388,11.27291 114.3399,12.87839 155.0845,2.66288 z M 724.3138,642.6595 C 808.3044,628.17529 884.15205,570.58434 924.23686,490.858 968.59762,402.62719 976.7874,271.1597 944.10597,171.90278 925.6619,115.88588 890.94868,64.163683 848.86275,29.992155 777.34837,-28.073927 670.28714,-39.516634 580.10969,1.2677801 508.02389,33.86998 442.02098,115.10798 416.73991,202.34737 c -11.63775,40.15961 -15.42644,70.38031 -15.2466,121.6143 0.34133,97.2462 24.07644,173.82777 72.58659,234.20233 61.01283,75.93509 141.76235,103.20145 250.2339,84.49548 z M 647.22761,360.05977 c -27.41278,-9.94303 -54.74847,-36.08593 -65.19208,-62.34734 -8.82339,-22.18724 -8.78968,-62.65108 0.0706,-84.9476 8.73276,-21.97474 32.78901,-47.14386 54.75533,-57.28794 15.23671,-7.03634 19.63457,-7.79501 45.1401,-7.78706 25.91345,0.008 29.55601,0.66493 43.88964,7.91412 43.56487,22.03287 66.44435,66.0383 60.55988,116.4782 -3.96793,34.00984 -28.11563,67.41318 -59.95312,82.93247 -13.72224,6.68894 -19.7904,7.93911 -41.71534,8.59415 -18.42086,0.55038 -29.01284,-0.45057 -37.55505,-3.549 z m 68.4154,-23.64537 c 42.16041,-19.84441 61.8297,-70.50564 44.73862,-115.23162 -3.98468,-10.42755 -9.87199,-12.50505 -33.02901,-11.65493 -51.37094,1.88589 -88.87129,39.19583 -93.49704,93.02215 -1.55201,18.06018 -1.13358,23.07709 2.26352,27.14383 11.56691,13.84692 56.34408,17.63102 79.52391,6.72057 z m 604.19869,306.57408 c 120.9159,-18.43661 203.4274,-104.93856 224.7276,-235.59628 2.2926,-14.06207 11.3451,-110.34361 20.1168,-213.95895 12.3878,-146.331624 15.2268,-189.0824221 12.7164,-191.4860695 -1.9,-1.81899433 -37.447,-6.1554986 -86.2392,-10.520645 -65.5213,-5.8617695 -83.4442,-6.7189975 -85.0816,-4.0693385 -1.1412,1.846224 -2.9005,18.0858511 -3.9098,36.088056 -11.6995,208.695217 -21.1448,350.827937 -24.2914,365.546697 -8.196,38.33765 -28.7801,67.25308 -53.9901,75.84301 -15.4844,5.27606 -38.1016,5.75961 -53.5071,1.14399 -16.0796,-4.81751 -34.5915,-24.05888 -42.1249,-43.78454 -8.7327,-22.86669 -9.2717,-68.76864 -3.1585,-269.13078 2.7548,-90.293365 4.4804,-165.683624 3.8351,-167.533905 -1.5952,-4.572161 -16.4351,-4.227809 -129.1396,2.996516 -52.5586,3.3690059 -96.1319,7.3145708 -97.6605,8.8431865 -3.52691,3.52677045 22.5793,405.5995125 28.7191,442.3184625 17.0895,102.20241 66.8864,167.97511 146.3484,193.30035 42.4448,13.52753 95.2333,17.22846 142.6393,10.00024 z M 260.81206,634.73596 c 56.24834,-3.74227 104.99465,-7.39951 108.32515,-8.12725 4.59134,-1.00323 6.05544,-3.21896 6.05544,-9.16419 0,-4.31261 -8.47762,-138.1965 -18.83917,-297.51982 C 345.99195,160.60139 337.51433,26.780934 337.51433,22.545858 337.51433,7.7224579 336.04787,7.4059803 257.88969,5.3620464 200.63935,3.8648786 185.17918,4.1909037 182.52076,6.9514184 180.18835,9.3733936 172.21561,105.30299 156.17387,323.96167 130.80524,669.75232 131.27912,645.17984 150.0272,642.6769 c 4.68334,-0.62524 54.53652,-4.19868 110.78486,-7.94094 z m -859.82498,-4.63805 c 3.7023,-8.54465 45.70439,-211.10592 45.70439,-220.41613 0,-4.21969 -1.10886,-7.67218 -2.46413,-7.67218 -1.35524,0 -51.67975,23.75374 -111.83223,52.78608 -60.15245,29.03235 -109.93543,52.21878 -110.62882,51.52539 -1.5096,-1.50962 -12.48351,-145.00459 -11.1884,-146.29971 0.49506,-0.49505 21.95732,2.65338 47.69392,6.9965 31.75561,5.35884 47.83491,7.03257 50.03334,5.20804 2.20737,-1.83193 3.79856,-19.59511 4.99424,-55.75359 0.96514,-29.1858 2.31988,-57.30388 3.01061,-62.48463 2.48134,-18.61189 1.4468,-18.67127 -55.54302,-3.18916 -28.44236,7.72678 -52.24006,13.52202 -52.8838,12.87829 -1.71482,-1.71482 -16.50931,-161.52074 -15.09129,-163.01205 0.66105,-0.695185 36.85629,10.59783 80.43384,25.09561 43.57754,14.49778 81.25727,25.96638 83.73268,25.48578 3.32492,-0.64553 12.11896,-23.71723 33.66038,-88.310087 16.03776,-48.089922 29.15958,-89.569703 29.15958,-92.177278 0,-3.380693 -2.1236,-4.737677 -7.40108,-4.7293 -14.37352,0.02281 -361.72589,50.464402 -364.14111,52.879616 -1.34737,1.347376 -13.49025,133.653309 -26.98418,294.013149 -20.54254,244.12472 -23.9443,292.1294 -20.90752,295.04227 2.62832,2.52113 55.4932,6.79094 192.0184,15.50908 103.61534,6.61662 192.35355,12.17635 197.19599,12.35496 6.73513,0.24842 9.42112,-1.09842 11.42821,-5.73065 z M 3067.8811,617.61958 c 48.1054,-9.9289 87.4529,-30.40343 119.5443,-62.20546 36.4723,-36.14324 51.1334,-69.46323 53.3192,-121.17824 2.3553,-55.71991 -10.4267,-87.02592 -59.8585,-146.60687 -71.4039,-86.06451 -83.6509,-105.04182 -86.6705,-134.30059 -2.7161,-26.31673 15.0284,-52.68273 44.04,-65.436667 14.2787,-6.277233 53.5426,-6.171323 74.637,0.201243 13.1001,3.957615 16.4332,4.173653 19.1356,1.240154 4.7793,-5.188606 23.2,-150.617685 19.6234,-154.926914 -4.0838,-4.920893 -76.6128,-4.403588 -111.6316,0.7962 -97.0058,14.403942 -173.5387,62.5363937 -213.7515,134.430584 -13.4619,24.068163 -14.9761,29.879107 -9.3922,36.04914 4.1286,4.56209 3.8472,5.92267 -4.2893,20.74919 -7.8961,14.3882 -8.6776,17.87355 -8.3856,37.39743 0.3682,24.6421 8.6151,52.30604 22.3317,74.91234 4.6387,7.64546 23.4927,31.4616 41.8976,52.92477 21.822,25.44828 36.8708,45.78252 43.2581,58.45171 9.0868,18.02399 9.7,20.74645 8.4845,37.6783 -2.1352,29.74956 -13.2376,46.36808 -38.4828,57.60244 -24.1226,10.735 -71.3922,7.12655 -107.0895,-8.17499 -6.8178,-2.92256 -13.3197,-4.16124 -15.3281,-2.92014 -2.6727,1.65179 3.8977,22.18264 28.1205,87.87335 17.3841,47.14489 33.0076,87.19212 34.7184,88.99384 10.4134,10.96632 103.8541,15.10031 145.7693,6.4491 z m 372.4583,-53.4587 c 8.8398,-27.75411 22.9927,-72.86715 31.4512,-100.25122 8.4586,-27.38406 16.2221,-50.75728 17.2523,-51.94047 1.8221,-2.0925 103.3794,-9.78689 130.6965,-9.90211 l 13.632,-0.0575 10.0641,90.83163 c 5.5355,49.95741 11.0938,91.8668 12.3521,93.132 2.2357,2.24793 193.2488,-10.61262 200.8292,-13.5214 2.1004,-0.80614 3.8194,-2.68952 3.8194,-4.18527 0,-6.96053 -162.3178,-620.192088 -165.0248,-623.458576 -2.5661,-3.096394 -18.5759,-3.405803 -95.981,-1.854923 -51.0958,1.023753 -94.9186,2.442543 -97.3844,3.152867 -5.0664,1.459604 -245.3393,598.731472 -243.8892,606.261542 0.5852,3.03842 24.484,13.10054 78.8538,33.19995 42.9076,15.86207 80.0937,28.88862 82.6354,28.94784 3.6542,0.085 7.9849,-10.45274 20.6934,-50.35438 z m 46.005,-274.27755 c 0,-2.3325 56.334,-148.8494 59.5904,-154.98602 2.5916,-4.88396 14.4287,-6.33139 20.4592,-2.50175 2.7201,1.7274 24.9114,140.37303 24.9114,155.64005 0,2.92218 -10.2377,3.63036 -52.4805,3.63036 -28.8642,0 -52.4805,-0.8022 -52.4805,-1.78264 z M 2483.7539,578.62177 c 33.7672,-34.74307 47.9428,-44.4847 75.4351,-51.83952 19.8727,-5.31643 40.7713,-4.46952 75.6175,3.06446 37.3104,8.06678 48.4117,8.4993 51.8045,2.01848 1.3564,-2.5904 4.561,-20.41239 7.1214,-39.60443 7.3673,-55.21738 13.7047,-74.07657 32.8098,-97.63715 12.0271,-14.8319 26.8836,-23.32003 62.4746,-35.69497 35.362,-12.29526 40.6537,-15.02156 40.63,-20.9323 0,-2.5383 -7.277,-17.6727 -16.1482,-33.632 -22.2796,-40.08168 -27.7713,-57.03149 -27.6572,-85.36368 0.111,-27.44347 5.0421,-42.16404 28.0348,-83.68163 8.6842,-15.68041 15.7892,-30.36797 15.7892,-32.639 0,-6.25196 -4.1643,-8.566209 -36.7822,-20.441981 -53.5392,-19.493015 -71.6375,-32.006385 -85.3076,-58.983159 -9.6088,-18.9620127 -12.3019,-31.4016679 -16.2187,-74.922052 -2.4329,-27.030339 -4.7541,-40.409446 -7.4856,-43.140785 -3.4847,-3.48472 -8.1292,-3.142523 -38.7536,2.855415 -77.7224,15.222371 -105.3465,6.66526 -165.4201,-51.241948 -24.3794,-23.50049 -30.2353,-27.90517 -34.1733,-25.70573 -2.6142,1.45984 -15.0641,16.92345 -27.6665,34.36357 -12.6026,17.44012 -28.0973,35.66307 -34.4329,40.495437 -26.0848,19.895659 -61.0332,22.151616 -117.4015,7.578451 -20.0389,-5.180767 -40.5715,-9.419576 -45.6282,-9.419576 -8.7626,0 -9.3312,0.599731 -12.1246,12.783711 -1.6121,7.031041 -4.1954,23.683508 -5.7407,37.005489 -6.9751,60.124469 -21.4329,89.635022 -52.9682,108.116031 -6.4258,3.765799 -25.8135,12.208175 -43.0837,18.760871 -33.7687,12.81267 -38.4528,15.486511 -38.4528,21.950276 0,2.30072 8.7242,18.07507 19.3871,35.05406 10.6628,16.97904 21.523,37.05067 24.1337,44.60369 6.0545,17.51528 6.238,46.37072 0.4263,67.08257 -4.3389,15.46367 -4.3151,16.1647 0.673,20.02489 5.0044,3.87272 4.981,3.95594 -0.7335,2.6102 -3.5699,-0.84074 -7.4062,0.35573 -9.7075,3.0278 -8.5995,9.98431 -34.2784,58.63533 -33.5833,63.62659 0.5571,3.9995 10.8788,10.3821 40.1686,24.8387 70.2647,34.68089 86.2236,56.01749 95.0155,127.03396 4.9744,40.17901 6.2339,45.15277 11.7973,46.57866 2.4649,0.63183 22.0426,-2.31317 43.5057,-6.54441 61.9932,-12.22136 92.4989,-8.95502 124.8204,13.36506 5.7422,3.96519 20.665,19.64136 33.1622,34.83591 19.9374,24.24047 28.3868,32.6787 33.022,32.97801 0.697,0.045 15.8356,-14.90758 33.6412,-33.22797 z M 2459.7635,447.673 c -70.0831,-17.76346 -124.8477,-68.88334 -148.3891,-138.51352 -5.8737,-17.37367 -7.5303,-28.04473 -8.5789,-55.27142 -1.4366,-37.30104 3.3797,-64.04688 16.821,-93.40617 3.7259,-8.13835 6.7742,-16.35891 6.7742,-18.26797 0,-1.90906 -10.2942,-15.36942 -22.876,-29.91191 -12.5818,-14.54255 -22.8761,-28.564492 -22.8761,-31.159976 0,-2.595443 9.6855,-12.907721 21.5235,-22.916156 11.8376,-10.008436 21.5263,-19.751299 21.5303,-21.650771 0,-6.398745 -13.2987,-29.7768913 -19.3814,-34.0373593 -14.6062,-10.2306903 -31.5176,-0.2904392 -45.2029,26.5695453 -9.4029,18.455274 -9.419,18.549981 -9.1613,53.72861 0.2099,28.444957 1.9489,43.544547 9.024,78.301657 18.6958,91.84378 12.5806,148.19779 -20.2423,186.54392 -12.1363,14.1787 -21.8575,19.3411 -36.4211,19.3411 -9.6358,0 -12.7515,-1.52849 -20.991,-10.29837 -10.8255,-11.52217 -38.2895,-68.20309 -35.3508,-72.95799 4.9743,-8.04859 13.8817,4.51777 30.0699,42.42191 7.6535,17.92102 17.4625,27.37793 28.3966,27.37793 20.247,0 45.4978,-36.89813 52.1206,-76.1617 4.3446,-25.75792 1.9666,-55.52825 -8.6472,-108.2494 -7.4409,-36.96078 -8.6803,-48.86685 -8.8199,-84.719674 -0.1615,-41.219538 -0.065,-41.923181 8.1635,-59.208764 22.7695,-47.841306 63.0043,-53.531444 80.6103,-11.400218 5.5843,13.36317 10.2805,13.409171 26.8712,0.263209 25.3039,-20.0500541 34.2754,-26.541307 36.6818,-26.541307 1.2769,0 12.8049,13.32197373 25.6182,29.604393 12.8129,16.282398 24.8511,29.604372 26.7515,29.604372 1.9,0 10.4778,-1.884555 19.0612,-4.187884 23.3899,-6.276567 72.2006,-5.680671 98.4279,1.201622 66.7464,17.514863 124.3887,70.908181 145.5931,134.860341 18.3457,55.33146 14.2101,110.9797 -12.0007,161.47846 -26.3908,50.84608 -66.3652,84.79826 -122.2182,103.80631 -29.8067,10.14392 -80.9661,11.84671 -112.8819,3.75718 z m 146.5233,-125.057 c 0,-34.53576 0.5565,-33.7582 -19.1738,-26.79218 -38.6995,13.66356 -87.4787,22.68012 -135.5765,25.06061 -20.3761,1.00845 -34.9869,2.85551 -34.9869,4.4229 0,1.50142 12.4938,3.54019 28.2587,4.61134 38.4696,2.61379 84.2165,8.97168 119.7632,16.64467 45.9608,9.92092 41.7153,12.35817 41.7153,-23.94734 z m -138.2125,-77.53552 c 16.0357,-17.49792 10.746,-42.39076 -11.2732,-53.05005 -13.6219,-6.59422 -18.3679,-6.58891 -32.9664,0.0365 -8.9483,4.06119 -12.7229,7.88576 -16.7356,16.95716 -6.7456,15.24932 -3.6105,27.75211 9.9428,39.65198 9.1375,8.02284 10.8411,8.51123 25.8919,7.42254 14.4295,-1.04371 17.0535,-2.19376 25.1405,-11.0183 z m 129.1828,0 c 16.0356,-17.49792 10.746,-42.39076 -11.2732,-53.05005 -13.6219,-6.59422 -18.368,-6.58891 -32.9664,0.0365 -8.9484,4.06119 -12.7229,7.88576 -16.7357,16.95716 -6.7455,15.24932 -3.6104,27.75211 9.9429,39.65198 9.1374,8.02284 10.841,8.51123 25.8918,7.42254 14.4296,-1.04371 17.0536,-2.19376 25.1406,-11.0183 z M 2484.642,174.30475 c 0.6605,-4.62577 -4.8486,-9.20419 -29.8674,-24.8219 -36.9039,-23.0366 -37.7456,-23.39141 -42.3476,-17.84658 -5.4505,6.56743 -1.8277,10.17839 31.0356,30.93461 30.299,19.13663 39.7386,21.82638 41.1794,11.73387 z m 82.9005,-12.45481 c 17.2289,-10.70984 31.9491,-21.09799 32.7115,-23.0848 0.7623,-1.98683 -0.5448,-5.54333 -2.9048,-7.9034 -3.9272,-3.92714 -6.7161,-2.82539 -32.8888,12.99239 -35.7971,21.63424 -43.3153,28.12659 -38.8299,33.53125 1.7973,2.16535 4.9142,3.93699 6.927,3.93699 2.0129,0 17.756,-8.76261 34.985,-19.47243 z M 2416.8812,53.591769 c 1.7684,-4.608656 -27.816,-41.821793 -33.2484,-41.821793 -8.7463,0 -6.0106,8.810346 7.7243,24.877272 19.2386,22.505436 22.5473,24.701926 25.5241,16.944521 z M 2184.4243,302.12156 c -9.1734,-5.87477 -12.1422,-9.81991 -4.037,-5.36488 6.175,3.39418 15.8485,10.87477 14.1294,10.9262 -0.7402,0.0216 -5.2818,-2.48043 -10.0924,-5.56132 z m -24.6786,-42.75128 c 3.9236,-8.23817 5.1666,-9.76497 5.1666,-6.34556 0,1.44402 -1.8833,4.97636 -4.1856,7.84965 -3.9461,4.92594 -4.0024,4.84005 -0.981,-1.50409 z m 7.9403,-17.49349 c 0,-1.48023 1.174,-4.50795 2.6089,-6.72828 1.435,-2.22033 2.6089,-2.82587 2.6089,-1.34564 0,1.48021 -1.1739,4.50793 -2.6089,6.72826 -1.4349,2.22033 -2.6089,2.82587 -2.6089,1.34566 z m 2365.3411,349.86403 c 40.5763,-6.54607 74.9623,-13.0893 76.4136,-14.54045 1.7234,-1.72376 -3.1131,-99.96074 -13.9517,-283.3616 -9.1244,-154.39774 -16.5637,-283.9671346 -16.5318,-287.9319962 0.032,-3.9648817 -1.593,-8.860061 -3.6111,-10.8781785 -4.827,-4.8268942 -138.0826,-53.8106483 -143.434,-52.7252423 -2.6311,0.533605 -22.4146,43.876242 -54.434,119.255824 l -50.3008,118.417533 -11.0485,0.81344 -11.0488,0.81345 -6.909,-18.30695 c -3.8002,-10.06883 -23.2521,-62.39546 -43.2264,-116.281435 -19.9745,-53.8860102 -37.4249,-99.082138 -38.7787,-100.435872 -2.8775,-2.877708 -144.6059,19.255217 -150.1089,23.441688 -4.037,3.071199 -173.2731,587.755439 -171.4811,592.440069 0.7983,2.08671 30.0883,3.61948 95.4847,4.99687 78.5903,1.6553 94.9533,1.36678 98.0489,-1.72869 2.0435,-2.04355 17.0759,-63.02997 33.4054,-135.5253 16.3291,-72.49535 30.3525,-133.92915 31.1632,-136.51953 1.072,-3.42691 4.3282,-4.70978 11.9534,-4.70978 9.8229,0 10.6544,0.63302 13.2556,10.09241 27.2343,99.03748 45.7721,163.12427 47.7607,165.11292 2.5067,2.50651 96.2193,-4.42427 101.167,-7.48207 1.372,-0.84798 19.3171,-36.06353 39.8781,-78.25672 l 37.3835,-76.71495 9.7551,1.58304 c 5.3652,0.87067 10.4132,2.24122 11.2177,3.04564 0.8044,0.80443 4.1511,67.61307 7.4371,148.46367 4.6135,113.50301 6.7815,147.4997 9.5154,149.18923 1.9472,1.20347 6.6252,1.61367 10.3955,0.91156 3.7702,-0.70211 40.0536,-6.63244 80.6299,-13.17858 z M 1717.3121,455.79713 c 23.8659,-10.35877 29.6919,-44.44596 12.2435,-71.63678 -4.6732,-7.2827 -23.1106,-30.16492 -40.9717,-50.84934 -26.3485,-30.51366 -35.0703,-42.84234 -46.2349,-65.35528 -8.1761,-16.48603 -14.7459,-26.76213 -16.1881,-25.31997 -1.3348,1.335 -6.0199,44.0852 -10.4111,95.00045 -4.391,50.91525 -8.6064,94.53486 -9.3675,96.93247 -1.8811,5.92661 2.7118,9.19969 24.3216,17.33367 33.3744,12.56207 63.5162,13.91758 86.6082,3.89478 z m -2419.63962,-7.76982 c 16.72912,-7.91426 21.80988,-12.18456 17.59582,-14.78901 -5.54045,-3.42417 -41.19294,-7.71106 -43.65492,-5.24908 -1.44174,1.44172 -1.82093,8.17973 -0.85638,15.21697 2.08588,15.21819 4.15484,15.58878 26.91548,4.82112 z M 2976.3171,424.71698 c 15.8401,-7.51654 21.555,-18.23723 21.555,-40.43425 0,-17.49756 -0.8121,-20.27556 -9.8333,-33.64135 -5.4085,-8.01286 -23.3968,-30.31298 -39.9742,-49.55582 -34.4607,-40.00131 -48.3125,-61.73179 -57.0426,-89.48598 -3.3757,-10.7316 -7.6149,-19.51199 -9.4211,-19.51199 -4.04,0 -10.7187,21.73946 -13.041,42.45021 -3.4796,31.02982 5.6279,60.87891 35.0865,114.9913 17.4013,31.96442 17.5256,32.34189 12.1238,36.80138 -3.0019,2.47817 -13.6121,7.16347 -23.5779,10.41177 -27.7561,9.04663 -29.0782,11.76229 -9.876,20.2818 33.0726,14.67355 72.4919,17.89958 94.0008,7.69293 z m -3984.4565,-11.26934 c 10e-5,-2.59037 5.45,-69.37082 12.11092,-148.40093 6.66087,-79.03014 12.02872,-150.48437 11.92854,-158.78714 -0.2886,-23.920375 -4.16376,-9.782612 -10.61592,38.73014 -3.14988,23.6835 -6.16704,44.46354 -6.70474,46.17786 -0.6681,2.12984 -8.0657,0.64979 -23.3603,-4.67382 -17.9295,-6.24069 -26.9339,-7.7861 -45.2587,-7.76759 -26.9229,0.0273 -39.3131,4.68824 -54.3388,20.4417 -12.0742,12.65904 -15.6352,21.48186 -15.6352,38.73803 0,12.97916 0.5501,13.83449 37.5365,58.36074 24.7735,29.82362 41.6596,52.99554 49.6623,68.14911 6.6692,12.62832 15.2861,25.92964 19.1489,29.55849 3.8627,3.62882 9.4685,10.55459 12.4573,15.39055 5.8563,9.47576 13.0689,11.72901 13.0692,4.08286 z"
           id="path16"
           inkscape:connector-curvature="0" />
        <path
           style="fill:#2a1f19;stroke-width:2.69130754"
           d="m -86.245189,711.43758 c -6.853267,-11.88158 -11.703798,-22.82728 -10.778889,-24.3238 1.62086,-2.62259 129.803698,-67.32362 180.884182,-91.30235 13.692869,-6.42783 25.649296,-10.93379 26.569826,-10.01326 0.92055,0.92055 0.79946,14.50034 -0.26912,30.17732 L 108.218,644.4791 19.688238,688.75979 c -48.691329,24.35434 -89.641945,44.28064 -91.001311,44.28064 -1.359387,0 -8.078829,-9.7213 -14.932116,-21.60285 z m -1181.605511,6.35305 c -16.863,-2.06093 -43.441,-6.65644 -52.9138,-9.14905 -8.5402,-2.24727 -10.4224,-4.26464 -14.1293,-15.14375 -2.3521,-6.9031 -4.2763,-13.24368 -4.2759,-14.09015 5e-4,-0.84647 24.525,-1.61773 54.499,-1.71389 50.3843,-0.16168 56.5299,-0.72132 81.4113,-7.41424 86.2729,-23.20684 151.3181,-83.81037 171.0292,-159.35034 6.8834,-26.37951 8.2148,-70.67697 2.8511,-94.85692 -2.0603,-9.28802 -3.0854,-17.54796 -2.2779,-18.35544 0.8075,-0.80747 5.4097,4.26071 10.2272,11.26264 l 8.7589,12.73076 -8.6851,103.8574 -8.6851,103.85744 -15.2895,15.67199 c -28.8229,29.54402 -72.474,54.33627 -114.0085,64.75271 -32.9406,8.26117 -78.5695,11.60029 -108.5116,7.94084 z m 3033.1037,0 c -16.7808,-2.0509 -43.4207,-6.6511 -52.7899,-9.11574 -8.0884,-2.12774 -10.4711,-4.5022 -14.1294,-14.08145 -2.4199,-6.33718 -4.4002,-12.73843 -4.4002,-14.225 0,-1.73987 15.1016,-2.32638 42.3881,-1.64627 45.6937,1.13894 77.6277,-2.70874 109.1707,-13.1538 43.6202,-14.44427 91.2917,-46.16895 116.0459,-77.22685 14.8364,-18.61427 31.653,-50.35565 37.4606,-70.70666 10.0278,-35.14022 10.7591,-81.49925 1.7793,-112.81049 -7.727,-26.9423 21.6914,18.99082 32.2095,50.29116 7.5852,22.5719 10.1691,64.80369 5.5803,91.2019 -15.5641,89.53648 -96.0456,157.1308 -203.0665,170.55011 -20.7205,2.59811 -53.0656,3.02314 -70.2484,0.92309 z M 657.78003,707.46717 c -24.28071,-4.90929 -41.0119,-10.9064 -64.92242,-23.27076 -18.94041,-9.7942 -44.35006,-28.48097 -41.96745,-30.86362 0.56114,-0.56098 9.39946,1.82006 19.64083,5.29126 31.20027,10.57498 53.82744,13.85905 93.97724,13.63985 107.4072,-0.58647 193.73238,-43.18177 255.44481,-126.04398 43.16723,-57.9614 68.33183,-145.7127 69.02841,-240.70973 0.28702,-39.15427 4.30885,-16.89124 8.94671,49.52613 2.37254,33.97652 6.32654,74.66934 8.78664,90.42853 l 4.473,28.65306 -10.0745,29.21004 c -39.24167,113.77763 -122.09627,186.02731 -234.18049,204.20664 -29.57337,4.79663 -85.26628,4.76224 -109.15278,-0.0672 z m 625.72907,1.09055 c -32.2638,-2.94644 -62.605,-11.00444 -88.8132,-23.587 -20.947,-10.05654 -51.6194,-31.73656 -48.8367,-34.51903 0.7608,-0.76095 8.8648,1.2056 18.0091,4.37005 28.1636,9.74666 53.5287,14.06877 91.3821,15.57113 61.539,2.44248 106.2774,-6.28834 154.8453,-30.21844 67.3575,-33.1881 116.7413,-89.80718 142.6731,-163.57759 4.0511,-11.52477 8.5935,-20.54488 10.0942,-20.04464 2.9888,0.9962 26.1095,60.05093 26.0618,66.56623 -0.056,7.80655 -27.0858,60.19326 -40.1449,77.80902 -45.9376,61.96652 -115.4709,100.2008 -196.1376,107.85038 -31.5927,2.99591 -34.0018,2.98824 -69.1332,-0.22013 z M 174.13591,706.89303 c -3.48715,-1.2197 -1.89275,-35.11149 1.84675,-39.2563 1.07082,-1.18687 51.38671,-5.69744 111.81308,-10.02351 60.42637,-4.32605 110.92055,-8.92003 112.20935,-10.20885 1.33018,-1.33016 -0.0363,-37.97078 -3.16054,-84.74774 -6.22721,-93.23238 -6.50173,-102.37254 -3.00915,-100.21398 1.37236,0.84809 3.95905,6.06671 5.74823,11.5969 1.78918,5.53021 8.39244,21.12171 14.67375,34.64779 l 11.42077,24.59291 4.83022,76.98391 c 2.65673,42.34113 4.28241,77.53184 3.61268,78.20154 -0.66973,0.66969 -54.47125,4.90018 -119.55902,9.40109 -65.08775,4.50091 -122.58016,8.62852 -127.76094,9.17246 -5.18075,0.54394 -10.88009,0.47814 -12.66518,-0.14614 z m -931.70849,-19.79158 c -111.60509,-7.14351 -204.10155,-14.17137 -205.54767,-15.6175 -1.55109,-1.55108 -1.8605,-8.78232 -0.75451,-17.63427 1.63002,-13.04631 2.63993,-15.00488 7.73655,-15.00397 3.22396,6e-4 82.76589,4.84447 176.75982,10.76419 204.30767,12.86725 198.60223,12.73316 201.56037,4.73657 2.07932,-5.62089 3.57522,-5.9676 22.11656,-5.12612 10.93752,0.49641 20.42042,1.42206 21.0731,2.057 1.95486,1.90175 -5.53347,42.46786 -8.51046,46.10325 -1.51517,1.85028 -4.72599,3.21673 -7.13511,3.03658 -2.40916,-0.18005 -95.69353,-6.17225 -207.29865,-13.31573 z m 368.43381,5.82828 c -59.94888,-2.36273 -110.37923,-5.19371 -112.06742,-6.29108 -2.2625,-1.47067 -1.9724,-6.35038 1.10336,-18.56066 l 4.17284,-16.56545 41.95756,1.72259 c 79.53828,3.2655 153.64696,5.28953 153.69601,4.1977 0.0268,-0.60208 6.60891,-41.01895 14.62632,-89.81532 15.14207,-92.15909 17.19267,-98.956 28.08437,-93.08838 6.05555,3.26229 25.34413,39.87582 23.51639,44.63879 -0.82531,2.15073 -7.71626,41.76594 -15.31326,88.03382 -7.597,46.2679 -15.05329,85.63728 -16.56955,87.48756 -1.51626,1.85028 -5.33349,3.17787 -8.48273,2.95021 -3.14927,-0.22768 -54.77501,-2.34707 -114.72389,-4.70978 z M 2467.8931,678.5877 c -6.7756,-7.74576 -12.3196,-15.31644 -12.3196,-16.82378 0,-1.50734 15.4414,-18.50818 34.3142,-37.77958 36.83,-37.60803 52.9693,-48.58734 82.8697,-56.37539 23.2858,-6.06521 54.3424,-5.15061 88.5453,2.60764 16.1969,3.67388 35.186,7.44085 42.198,8.37102 l 12.7491,1.69125 2.6486,-10.41389 c 1.4566,-5.72764 4.6296,-25.55249 7.051,-44.05522 5.7254,-43.75251 10.5062,-61.78195 22.4798,-84.7762 18.2721,-35.08981 39.5281,-50.00441 99.5973,-69.8839 16.7597,-5.54646 31.0582,-11.61234 31.7747,-13.4797 0.7166,-1.86738 -8.8504,-23.23485 -21.26,-47.48331 -28.4503,-55.59245 -33.7411,-79.67168 -26.0673,-118.63942 3.1505,-15.99882 42.219,-96.237509 47.9242,-98.426814 5.4162,-2.07847 31.1758,6.702708 36.3125,12.378694 4.1671,4.60466 2.9996,7.7199 -19.4259,51.84085 -28.1301,55.34462 -32.809,73.45952 -27.6211,106.94361 3.8111,24.59927 11.5895,44.11118 33.9828,85.24554 20.8004,38.20826 21.6506,35.85463 -17.9282,49.63569 -36.2529,12.62308 -64.1338,26.06188 -74.5726,35.94462 -26.4372,25.0289 -40.0424,59.88165 -48.8205,125.06701 -3.0439,22.60223 -6.2709,43.01425 -7.1711,45.36011 -1.9361,5.04552 -8.1436,4.35362 -54.6714,-6.09395 -56.5792,-12.70448 -95.2817,-8.25946 -131.412,15.09268 -9.154,5.91639 -31.3793,25.91722 -49.3898,44.44631 -18.0105,18.52908 -34.2588,33.68925 -36.1073,33.68925 -1.8486,0 -8.9046,-6.33741 -15.6804,-14.08312 z m 542.0899,7.35833 c -35.4849,-6.01734 -38.5052,-7.2414 -43.4783,-17.62029 -10.764,-22.46436 -13.2356,-20.979 34.6212,-20.80634 88.8012,0.32031 148.7313,-21.60021 205.5219,-75.17345 18.5934,-17.5402 18.6399,-17.5638 18.6399,-9.51391 0,7.72091 1.0473,8.44756 24.2217,16.80385 15.5306,5.60016 24.2218,10.15116 24.2218,12.68365 0,2.17231 -10.0561,13.83192 -22.347,25.91021 -32.5143,31.95186 -67.5033,51.17588 -116.2554,63.87422 -28.5327,7.43184 -92.4115,9.39296 -125.1458,3.84206 z m 380.9002,-33.90406 c -47.3231,-17.67996 -87.1396,-33.24329 -88.4815,-34.58518 -2.9308,-2.93089 -0.026,-16.29043 3.5521,-16.29043 1.3839,0 30.273,10.29425 64.198,22.87611 33.9252,12.58186 63.6007,22.87611 65.9456,22.87611 4.4253,0 6.5564,-6.21127 50.3231,-146.67626 10.6082,-34.04505 20.4406,-63.11118 21.8503,-64.59139 3.9433,-4.14099 97.0746,-9.37281 101.0211,-5.67504 1.7517,1.64107 3.5683,11.46136 4.037,21.82289 l 0.8526,18.83915 -25.5673,2.17895 c -14.0621,1.19841 -28.0779,2.68151 -31.1464,3.29577 -4.7991,0.96076 -10.0932,15.51203 -37.8838,104.12772 -27.3054,87.06842 -33.1063,103.08333 -37.4822,103.47891 -2.8473,0.25756 -43.8957,-13.99736 -91.2186,-31.67731 z m 1095.5957,19.60582 c -2.4632,-3.98532 -2.4955,-43.81463 -0.038,-45.92774 1.3284,-1.1419 35.1145,-7.25672 75.0805,-13.58847 39.9659,-6.3318 73.549,-12.33325 74.6286,-13.33659 1.0797,-1.00335 -5.5348,-128.59536 -14.6995,-283.5378 -9.1646,-154.94245 -15.8401,-282.53621 -14.8347,-283.541716 2.3978,-2.397613 34.4741,9.627346 35.8592,13.443021 2.5259,6.959278 35.8308,595.050225 33.8131,597.067885 -1.8523,1.85236 -175.1863,31.37101 -185.2547,31.54871 -1.7628,0.0313 -3.8125,-0.92616 -4.5551,-2.1273 z m -785.9827,-22.71073 c -3.9599,-19.09979 -4.458,-37.08129 -1.0605,-38.26862 1.9575,-0.68404 45.3415,-4.26388 96.4091,-7.95516 51.0675,-3.69127 96.5726,-8.15648 101.1222,-9.92269 15.8423,-6.14994 21.1208,-2.20196 27.8028,20.79443 3.5299,12.14839 4.9971,21.5967 3.5751,23.0188 -1.7861,1.78639 -201.9328,18.25357 -223.2803,18.37052 -1.8223,0.0101 -3.8779,-2.70679 -4.5684,-6.03728 z m 236.5029,-18.90463 c -0.7367,-1.91996 0.8591,-10.71411 3.5463,-19.54259 l 4.8858,-16.05176 80.5363,-0.71376 c 44.295,-0.39257 81.5765,-1.75422 82.8482,-3.02588 1.2716,-1.27169 14.0302,-54.01348 28.3524,-117.20404 14.3221,-63.19054 27.2486,-115.11677 28.726,-115.39165 1.4769,-0.27485 8.6613,20.99519 15.9655,47.26681 l 13.28,47.7665 -20.0699,89.49018 -20.0698,89.49015 -108.3306,0.70342 c -86.7836,0.56352 -108.5969,0.008 -109.6702,-2.78738 z M -567.77327,613.27725 c 2.85879,-19.28994 30.28367,-152.0407 31.97548,-154.7781 1.8037,-2.91845 9.40233,-3.6955 9.40233,-0.96151 0,0.93607 -8.40254,35.75487 -18.67226,77.37509 -18.49853,74.96907 -26.08047,101.13689 -22.70555,78.36452 z m 2780.28777,-7.72986 c -0.7793,-2.03107 -2.2393,-9.17805 -3.2449,-15.88213 -2.1255,-14.17456 -4.8654,-12.57653 35.459,-20.68231 31.4195,-6.3158 68.737,-7.08886 88.3905,-1.83108 22.8383,6.10986 59.4461,27.88325 54.7883,32.58688 -0.9512,0.96039 -8.8232,-0.37627 -17.4936,-2.97038 -24.4636,-7.31929 -59.1143,-6.02387 -107.754,4.02847 -46.5655,9.62363 -48.2152,9.77988 -50.1453,4.75055 z m 2061.139,-74.19092 c -3.9518,-6.3939 -12.0624,-39.06816 -10.1659,-40.95261 1.0948,-1.08766 19.5002,-3.5578 40.9009,-5.48914 l 38.9101,-3.51155 27.6166,-55.84464 c 24.6796,-49.90617 33.0363,-63.10627 33.225,-52.4805 0.032,1.85028 1.2103,27.98587 2.6162,58.07908 l 2.5568,54.71492 -9.3537,18.57422 c -6.5952,13.09558 -11.1375,18.9435 -15.4002,19.82614 -3.3254,0.68855 -24.2127,2.58166 -46.4159,4.20692 -22.2033,1.62528 -45.3737,3.62216 -51.4897,4.43755 -6.8943,0.9192 -11.8343,0.32627 -13.0002,-1.56039 z M 3872.8633,515.71734 C 3865.399,490.46611 3736.6361,-4.4362449 3736.6361,-7.873738 c 0,-3.550932 2.428,-4.578056 10.8229,-4.578056 8.6441,0 11.3563,1.219001 13.4737,6.0554427 5.3744,12.2784997 127.4691,480.0041513 127.3347,487.7995213 -0.1837,10.55678 -8.7118,39.02396 -11.6931,39.02396 -1.2753,0 -2.9454,-2.11941 -3.711,-4.70979 z M -757.87571,461.89118 c -0.0161,-2.59037 -1.29159,-19.11705 -2.83629,-36.72593 -1.54466,-17.60887 -1.83496,-32.93533 -0.64505,-34.05876 1.18992,-1.12347 22.14643,1.36078 46.57005,5.52049 27.61003,4.70241 45.40157,6.61383 47.03714,5.0534 1.44679,-1.38033 3.65632,-26.98557 4.9101,-56.90051 1.25374,-29.91491 3.49407,-55.85419 4.97852,-57.64282 2.73436,-3.29471 30.98905,-10.72304 33.02866,-8.68343 1.35592,1.3559 -3.67131,123.51383 -5.28278,128.36822 -0.63296,1.90663 -11.76815,8.40562 -24.74488,14.44221 l -23.59411,10.97563 -23.46556,-3.21453 c -12.90607,-1.76797 -24.74397,-2.4244 -26.30646,-1.45874 -1.76502,1.09085 -2.18581,6.69405 -1.11109,14.79563 l 1.72982,13.03989 -10.97596,5.59953 c -13.40081,6.83657 -19.25546,7.10656 -19.29211,0.88972 z M 2459.7635,447.673 c -70.0831,-17.76346 -124.8477,-68.88334 -148.3891,-138.51352 -5.8737,-17.37367 -7.5303,-28.04473 -8.5789,-55.27142 -1.4366,-37.30104 3.3797,-64.04688 16.821,-93.40617 3.7259,-8.13835 6.7742,-16.35891 6.7742,-18.26797 0,-1.90906 -10.2942,-15.36942 -22.876,-29.91191 -12.5818,-14.54255 -22.8761,-28.564492 -22.8761,-31.159976 0,-2.595443 9.6855,-12.907721 21.5235,-22.916156 11.8376,-10.008436 21.5263,-19.751299 21.5303,-21.650771 0,-6.398745 -13.2987,-29.7768913 -19.3814,-34.0373593 -14.6062,-10.2306903 -31.5176,-0.2904392 -45.2029,26.5695453 -9.4029,18.455274 -9.419,18.549981 -9.1613,53.72861 0.2099,28.444957 1.9489,43.544547 9.024,78.301657 18.6958,91.84378 12.5806,148.19779 -20.2423,186.54392 -12.1363,14.1787 -21.8575,19.3411 -36.4211,19.3411 -9.6358,0 -12.7515,-1.52849 -20.991,-10.29837 -10.8255,-11.52217 -38.2895,-68.20309 -35.3508,-72.95799 4.9743,-8.04859 13.8817,4.51777 30.0699,42.42191 7.6535,17.92102 17.4625,27.37793 28.3966,27.37793 20.247,0 45.4978,-36.89813 52.1206,-76.1617 4.3446,-25.75792 1.9666,-55.52825 -8.6472,-108.2494 -7.4409,-36.96078 -8.6803,-48.86685 -8.8199,-84.719674 -0.1615,-41.219538 -0.065,-41.923181 8.1635,-59.208764 22.7695,-47.841306 63.0043,-53.531444 80.6103,-11.400218 5.5843,13.36317 10.2805,13.409171 26.8712,0.263209 25.3039,-20.0500541 34.2754,-26.541307 36.6818,-26.541307 1.2769,0 12.8049,13.32197373 25.6182,29.604393 12.8129,16.282398 24.8511,29.604372 26.7515,29.604372 1.9,0 10.4778,-1.884555 19.0612,-4.187884 23.3899,-6.276567 72.2006,-5.680671 98.4279,1.201622 66.7464,17.514863 124.3887,70.908181 145.5931,134.860341 18.3457,55.33146 14.2101,110.9797 -12.0007,161.47846 -26.3908,50.84608 -66.3652,84.79826 -122.2182,103.80631 -29.8067,10.14392 -80.9661,11.84671 -112.8819,3.75718 z m 146.5233,-125.057 c 0,-34.53576 0.5565,-33.7582 -19.1738,-26.79218 -38.6995,13.66356 -87.4787,22.68012 -135.5765,25.06061 -20.3761,1.00845 -34.9869,2.85551 -34.9869,4.4229 0,1.50142 12.4938,3.54019 28.2587,4.61134 38.4696,2.61379 84.2165,8.97168 119.7632,16.64467 45.9608,9.92092 41.7153,12.35817 41.7153,-23.94734 z m -138.2125,-77.53552 c 16.0357,-17.49792 10.746,-42.39076 -11.2732,-53.05005 -13.6219,-6.59422 -18.3679,-6.58891 -32.9664,0.0365 -8.9483,4.06119 -12.7229,7.88576 -16.7356,16.95716 -6.7456,15.24932 -3.6105,27.75211 9.9428,39.65198 9.1375,8.02284 10.8411,8.51123 25.8919,7.42254 14.4295,-1.04371 17.0535,-2.19376 25.1405,-11.0183 z m 129.1828,0 c 16.0356,-17.49792 10.746,-42.39076 -11.2732,-53.05005 -13.6219,-6.59422 -18.368,-6.58891 -32.9664,0.0365 -8.9484,4.06119 -12.7229,7.88576 -16.7357,16.95716 -6.7455,15.24932 -3.6104,27.75211 9.9429,39.65198 9.1374,8.02284 10.841,8.51123 25.8918,7.42254 14.4296,-1.04371 17.0536,-2.19376 25.1406,-11.0183 z M 2484.642,174.30475 c 0.6605,-4.62577 -4.8486,-9.20419 -29.8674,-24.8219 -36.9039,-23.0366 -37.7456,-23.39141 -42.3476,-17.84658 -5.4505,6.56743 -1.8277,10.17839 31.0356,30.93461 30.299,19.13663 39.7386,21.82638 41.1794,11.73387 z m 82.9005,-12.45481 c 17.2289,-10.70984 31.9491,-21.09799 32.7115,-23.0848 0.7623,-1.98683 -0.5448,-5.54333 -2.9048,-7.9034 -3.9272,-3.92714 -6.7161,-2.82539 -32.8888,12.99239 -35.7971,21.63424 -43.3153,28.12659 -38.8299,33.53125 1.7973,2.16535 4.9142,3.93699 6.927,3.93699 2.0129,0 17.756,-8.76261 34.985,-19.47243 z M 2416.8812,53.591769 c 1.7684,-4.608656 -27.816,-41.821793 -33.2484,-41.821793 -8.7463,0 -6.0106,8.810346 7.7243,24.877272 19.2386,22.505436 22.5473,24.701926 25.5241,16.944521 z m 851.259,394.170051 c -0.2341,-0.74012 -0.7256,-12.24546 -1.0938,-25.56741 -0.3684,-13.32198 -2.6139,-31.4883 -4.9901,-40.36962 -8.9229,-33.34958 -8.9754,-30.7143 0.4271,-21.53047 4.5464,4.44066 12.5101,15.16953 17.6974,23.84191 l 9.4314,15.76801 -6.3859,16.96566 c -6.5247,17.33467 -14.3253,33.30757 -15.0861,30.89192 z M 1265.0563,434.28367 c -10.8124,-9.49338 -17.4039,-26.22993 -19.6908,-49.9972 -1.5428,-16.03257 6.5592,-349.066752 8.6532,-355.695827 1.1624,-3.680276 32.3948,-4.906442 34.276,-1.34564 0.5864,1.110164 -1.0773,72.261614 -3.6972,158.114327 -2.62,85.85271 -4.8452,178.12671 -4.9445,205.05337 -0.103,27.44223 -1.2931,49.64474 -2.711,50.52126 -1.3918,0.86008 -6.7402,-2.13258 -11.8857,-6.65029 z m 324.2843,-5.8635 c -7.5917,-4.85998 -9.9123,-5.25661 -14.3915,-2.4595 -2.9369,1.83423 -5.9354,2.73948 -6.663,2.01168 -0.7281,-0.72779 -0.049,-9.59211 1.5116,-19.69844 1.5591,-10.10637 8.9031,-90.43496 16.3196,-178.508 7.4167,-88.07306 14.2281,-166.652341 15.1366,-174.620658 l 1.6519,-14.487828 16.1386,1.686784 c 8.8759,0.927734 17.2477,2.372442 18.6035,3.210455 5.0894,3.145358 -0.6338,55.370457 -8.7547,79.891347 -9.6385,29.10286 -12.204,58.73489 -7.8057,90.15133 2.9651,21.17716 2.4557,33.325 -4.9867,118.85015 -4.5591,52.39411 -8.2893,96.29607 -8.2893,97.5599 0,4.12376 -9.224,2.33236 -18.4709,-3.58722 z M -29.248538,410.68878 c -9.951777,-10.02862 -18.094147,-19.54586 -18.094147,-21.14942 0,-1.60354 6.963759,-7.48596 15.475027,-13.07202 23.2871928,-15.2837 59.376197,-53.53924 72.51572,-76.86906 12.979619,-23.04591 23.468594,-52.7048 27.551779,-77.9063 4.133829,-25.51372 3.501802,-69.85784 -1.328988,-93.24509 -2.31219,-11.19407 -3.645598,-20.91128 -2.963069,-21.59377 2.228766,-2.22877 14.780467,16.36132 23.069964,34.16852 11.383203,24.45303 16.359362,45.42801 18.228172,76.83349 4.46353,75.00982 -24.021454,142.86638 -78.124249,186.10646 -20.5427257,16.41816 -32.8253632,24.96108 -35.8880244,24.96108 -1.2914236,0 -10.4903876,-8.20523 -20.4421846,-18.23389 z M 2083.6601,404.17817 c -32.6487,-15.57411 -41.4329,-22.23039 -33.4026,-25.31189 5.1231,-1.96598 53.9267,22.56373 65.8216,33.08329 14.2671,12.61772 6.3407,10.7176 -32.419,-7.7714 z M 620.76755,312.5236 c -14.35281,-14.83216 -20.77421,-32.53743 -20.74231,-57.19028 0.0222,-16.76651 1.4313,-24.66877 6.36992,-35.71395 8.28263,-18.52354 30.5057,-38.9843 49.02244,-45.13455 17.70248,-5.87981 45.07671,-4.2813 60.36368,3.5249 11.01384,5.62421 34.69728,27.23746 32.38269,29.55209 -0.68891,0.68887 -10.46441,1.58963 -21.7235,2.00171 -50.02865,1.83106 -89.03438,40.7181 -92.32854,92.04765 -0.69375,10.81256 -2.07581,19.65919 -3.07112,19.65919 -0.99511,0 -5.61824,-3.93603 -10.27326,-8.74676 z M 2184.4243,302.12156 c -9.1734,-5.87477 -12.1422,-9.81991 -4.037,-5.36488 6.175,3.39418 15.8485,10.87477 14.1294,10.9262 -0.7402,0.0216 -5.2818,-2.48043 -10.0924,-5.56132 z m -2421.98299,-27.1566 c -3.48141,-4.52194 16.43946,-117.85354 21.29709,-121.16119 5.00721,-3.40946 24.76216,-0.27802 36.71492,5.81981 12.30623,6.27818 25.14991,20.61248 23.98387,26.76745 -0.57004,3.00889 -4.28047,4.60301 -12.0295,5.16822 -6.16286,0.44954 -12.34943,2.26617 -13.74789,4.03697 -1.39849,1.77081 -5.21723,18.31866 -8.48616,36.77298 -3.26891,18.45435 -6.50897,34.46837 -7.20016,35.58671 -1.22256,1.97813 -12.62651,5.37876 -29.53211,8.80637 -5.38959,1.09274 -9.26217,0.45999 -11.00006,-1.79732 z m 2341.24379,-4.9133 c -3.3305,-1.33872 -6.0555,-3.68412 -6.0555,-5.21205 0,-4.0594 3.0336,-3.40697 12.1109,2.60459 8.2651,5.47364 4.7937,6.96828 -6.0554,2.60746 z m 1421.4416,-6.3038 c -1.2563,-3.27367 20.5702,-64.62726 24.3278,-68.3849 0.8146,-0.81462 2.0919,-0.87061 2.8379,-0.12434 2.5351,2.53489 10.2142,63.53358 8.5455,67.88147 -2.2058,5.74865 -33.5347,6.29946 -35.7112,0.62783 z m -1365.381,-4.37758 c 3.9236,-8.23817 5.1666,-9.76497 5.1666,-6.34556 0,1.44402 -1.8833,4.97636 -4.1856,7.84965 -3.9461,4.92594 -4.0024,4.84005 -0.981,-1.50409 z M 982.37193,223.7884 c -4.36113,-24.02204 -14.14672,-62.15458 -19.59097,-76.34224 -3.77133,-9.82752 4.60678,-0.48887 14.20506,15.83398 9.66671,16.43909 9.83949,17.2465 11.20317,52.3564 0.76178,19.61289 0.88813,35.65982 0.28098,35.65982 -0.60737,0 -3.35149,-12.37858 -6.09824,-27.50796 z m -605.48535,19.43403 c -2.32144,-6.8941 -13.16924,-188.578548 -11.36703,-190.380749 1.64829,-1.648332 26.16899,-1.251135 27.87158,0.451454 0.46365,0.463665 2.57982,26.341982 4.70286,57.507405 3.68151,54.04876 3.62661,57.34228 -1.19272,71.34936 -2.77864,8.07675 -7.13694,24.21386 -9.68467,35.86029 -5.37903,24.58805 -8.21197,31.50237 -10.33002,25.21224 z M 2167.686,241.87679 c 0,-1.48023 1.174,-4.50795 2.6089,-6.72828 1.435,-2.22033 2.6089,-2.82587 2.6089,-1.34564 0,1.48021 -1.1739,4.50793 -2.6089,6.72826 -1.4349,2.22033 -2.6089,2.82587 -2.6089,1.34566 z m -3323.7463,-17.66344 c -13.2801,-20.54678 -19.9776,-40.11549 -17.5355,-51.2345 1.009,-4.59382 6.2819,-12.79973 11.7175,-18.23535 21.5034,-21.50345 56.4188,-21.55637 102.3941,-0.15523 9.506,4.42498 18.2817,7.04739 19.5015,5.82756 1.2198,-1.21981 6.4794,-34.8614 11.6878,-74.75904 5.2084,-39.897635 10.0195,-74.055054 10.6912,-75.9053148 1.3015,-3.585044 22.13111,-4.5827185 33.29301,-1.5946402 6.15917,1.6488162 6.28565,2.265301 4.54788,22.166533 -1.8301,20.95831 -19.91496,155.222022 -21.66519,160.844182 -0.6627,2.12887 -8.0653,0.64736 -23.3529,-4.67382 -27.8527,-9.69476 -61.4276,-10.8615 -78.9001,-2.74188 -20.3669,9.46466 -36.3326,30.94432 -36.3326,48.88046 0,11.91713 -4.3922,9.61273 -16.0467,-8.41906 z m 3036.1915,4.87972 c -20.5747,-30.03673 -26.0289,-51.28556 -16.8973,-65.82932 18.2203,-29.01825 59.7683,-32.28849 110.3857,-8.68841 9.5062,4.43212 18.2075,7.11621 19.3367,5.96467 1.1291,-1.15159 6.3953,-35.2517 11.7029,-75.778033 5.3076,-40.526351 10.3966,-74.8921179 11.3089,-76.368354 1.7,-2.750604 34.8344,-1.2870641 37.7904,1.669223 0.8692,0.868896 -0.1069,14.022104 -2.169,29.229359 l -3.7491,27.649574 -15.4749,7.374762 c -18.8995,9.006663 -19.2789,11.882958 -4.7099,35.686179 5.921,9.67355 10.7653,20.76019 10.7653,24.63697 0,15.94099 -6.646,55.41028 -9.5155,56.51147 -1.6982,0.65166 -12.2736,-1.89875 -23.501,-5.66763 -15.1925,-5.09996 -25.9924,-6.85248 -42.2282,-6.85248 -25.6636,0 -37.4937,4.15153 -52.1414,18.29775 -13.0111,12.56534 -17.9445,21.92661 -17.9445,34.0491 0,5.25427 -1.153,9.55323 -2.5623,9.55323 -1.4089,0 -6.0877,-5.14713 -10.3968,-11.43806 z m -2650.19434,0.50403 c -2.50166,-4.04778 -10.51854,-91.02951 -8.56954,-92.97847 0.88478,-0.88482 34.68707,9.4171 75.11617,22.89316 40.42906,13.47603 74.92005,24.50188 76.64664,24.50188 1.72766,0 15.99196,-38.55888 31.72327,-85.753465 l 28.58407,-85.753483 24.307,-3.3217132 c 13.36888,-1.8269472 25.09736,-2.5313769 26.06333,-1.5654329 2.46741,2.4674511 -66.58381,208.8075241 -70.35932,210.2488641 -1.69932,0.64874 -37.47582,-10.3011 -79.50334,-24.33293 -42.02747,-14.03186 -77.525,-24.82558 -78.88336,-23.98609 -1.43764,0.88853 -1.69221,13.13375 -0.60918,29.30202 l 1.8606,27.77561 -10.44471,2.90007 c -12.95496,3.59707 -13.74961,3.60057 -15.93163,0.07 z M 3144.7119,204.10242 c -13.0904,-17.33843 -27.0714,-45.56866 -27.0745,-54.66902 0,-19.0371 21.2183,-38.74799 45.2883,-42.05848 16.5111,-2.27087 45.4374,3.81842 69.0948,14.54523 10.154,4.60401 19.3825,7.43933 20.5078,6.30067 1.1251,-1.13865 6.3229,-34.528538 11.5501,-74.199761 5.2275,-39.671242 10.3157,-73.442082 11.3071,-75.04635 1.9854,-3.21211 41.0249,-0.990893 44.4712,2.530267 2.1164,2.162317 -19.9093,175.573744 -22.9186,180.443204 -1.2303,1.99038 -7.6323,0.65116 -19.9111,-4.16509 -15.3288,-6.01253 -22.4221,-7.12264 -46.3569,-7.25475 -26.0039,-0.14351 -29.2449,0.42388 -40.6211,7.11172 -20.9345,12.30692 -33.8949,35.28593 -30.2318,53.601 2.3538,11.7698 -2.5949,9.43094 -15.1053,-7.13864 z m 1169.3342,-71.02219 c -3.98,-6.44 -49.9138,-133.28806033 -49.9138,-137.8394318 0,-3.721897 1.9923,-5.0012909 7.7877,-5.0012909 7.7003,0 8.0473,0.7004936 31.1074,62.8220667 17.1967,46.325629 22.8563,64.671116 21.5528,69.863616 -2.1275,8.47653 -8.0457,14.18171 -10.5341,10.15504 z M 2772.5763,33.944664 c -31.8859,-25.3017183 -45.9467,-58.459061 -49.5696,-116.892749 l -1.7846,-28.781025 6.4511,-1.3189 c 20.7962,-4.25182 23.8495,-4.18807 26.3858,0.55092 1.401,2.61797 3.8609,21.657565 5.4666,42.310215 4.3222,55.599791 10.8897,80.751737 26.9883,103.360257 10.4122,14.622602 3.9673,14.979227 -13.9376,0.771282 z m -249.72,-190.117714 c -6.661,-4.96233 -19.333,-15.81608 -28.1598,-24.11944 -12.7366,-11.98101 -15.3627,-15.78313 -12.7247,-18.42126 2.6383,-2.63814 9.0024,2.35385 30.8349,24.18616 28.1435,28.14354 31.5563,34.37669 10.0496,18.35454 z"
           id="path14"
           inkscape:connector-curvature="0" />
      </g>
    </g>
  </g>
  <g
     inkscape:groupmode="layer"
     id="layer1"
     inkscape:label="Layer 1"
     transform="translate(0,-277.33331)" />
</svg>
